<?xml version="1.0" standalone="no"?>
 <!DOCTYPE svg PUBLIC "-//W3C//DTD SVG 1.1//EN" 
 "http://www.w3.org/Graphics/SVG/1.1/DTD/svg11.dtd"> 
<svg
  xmlns:svg="http://www.w3.org/2000/svg"
  xmlns="http://www.w3.org/2000/svg"
  xmlns:xlink="http://www.w3.org/1999/xlink"
  version="1.1"
  width="29.700220cm" height="21.000720cm" viewBox="0 0 116930 82680">
<title>SVG Picture created as opamp.svg date 2022/10/14 06:39:57 </title>
  <desc>Picture generated by Eeschema-SVG </desc>
<g style="fill:#000000; fill-opacity:1.000000;stroke:#000000; stroke-opacity:1.000000;
stroke-linecap:round; stroke-linejoin:round;"
 transform="translate(0 0) scale(1 1)">
</g>
<g style="fill:#840000; fill-opacity:0.0; 
stroke:#840000; stroke-width:0.000000; stroke-opacity:1; 
stroke-linecap:round; stroke-linejoin:round;">
</g>
<g style="fill:#840000; fill-opacity:0.0; 
stroke:#840000; stroke-width:60.000000; stroke-opacity:1; 
stroke-linecap:round; stroke-linejoin:round;">
<rect x="69685.905512" y="65357.165354" width="42519.685039" height="12598.425197" rx="0.000000" />
<rect x="3937.007874" y="3937.007874" width="109055.984252" height="74805.984252" rx="0.000000" />
<rect x="4724.409449" y="4724.409449" width="107481.181102" height="73231.181102" rx="0.000000" />
<path d="M23622 4724
L23622 3937
" />
<path d="M43307 4724
L43307 3937
" />
<path d="M62992 4724
L62992 3937
" />
<path d="M82677 4724
L82677 3937
" />
<path d="M102362 4724
L102362 3937
" />
<text x="13779.527559" y="4586.614173"
textLength="547.440945" font-size="682.401575" lengthAdjust="spacingAndGlyphs"
text-anchor="start" opacity="0">1</text>
<g class="stroked-text"><desc>1</desc>
<path d="M14199 4562
L13907 4562
" />
<path d="M14053 4562
L14053 4050
L14004 4123
L13955 4172
L13907 4196
" />
</g><text x="33464.566929" y="4586.614173"
textLength="547.440945" font-size="682.401575" lengthAdjust="spacingAndGlyphs"
text-anchor="start" opacity="0">2</text>
<g class="stroked-text"><desc>2</desc>
<path d="M33592 4099
L33616 4074
L33665 4050
L33787 4050
L33835 4074
L33860 4099
L33884 4147
L33884 4196
L33860 4269
L33567 4562
L33884 4562
" />
</g><text x="53149.606299" y="4586.614173"
textLength="547.440945" font-size="682.401575" lengthAdjust="spacingAndGlyphs"
text-anchor="start" opacity="0">3</text>
<g class="stroked-text"><desc>3</desc>
<path d="M53252 4050
L53569 4050
L53398 4245
L53472 4245
L53520 4269
L53545 4294
L53569 4342
L53569 4464
L53545 4513
L53520 4537
L53472 4562
L53325 4562
L53277 4537
L53252 4513
" />
</g><text x="72834.645669" y="4586.614173"
textLength="547.440945" font-size="682.401575" lengthAdjust="spacingAndGlyphs"
text-anchor="start" opacity="0">4</text>
<g class="stroked-text"><desc>4</desc>
<path d="M73205 4221
L73205 4562
" />
<path d="M73083 4026
L72962 4391
L73278 4391
" />
</g><text x="92519.685039" y="4586.614173"
textLength="547.440945" font-size="682.401575" lengthAdjust="spacingAndGlyphs"
text-anchor="start" opacity="0">5</text>
<g class="stroked-text"><desc>5</desc>
<path d="M92915 4050
L92671 4050
L92647 4294
L92671 4269
L92720 4245
L92842 4245
L92890 4269
L92915 4294
L92939 4342
L92939 4464
L92915 4513
L92890 4537
L92842 4562
L92720 4562
L92671 4537
L92647 4513
" />
</g><text x="112204.724409" y="4586.614173"
textLength="547.440945" font-size="682.401575" lengthAdjust="spacingAndGlyphs"
text-anchor="start" opacity="0">6</text>
<g class="stroked-text"><desc>6</desc>
<path d="M112575 4050
L112478 4050
L112429 4074
L112405 4099
L112356 4172
L112332 4269
L112332 4464
L112356 4513
L112380 4537
L112429 4562
L112527 4562
L112575 4537
L112600 4513
L112624 4464
L112624 4342
L112600 4294
L112575 4269
L112527 4245
L112429 4245
L112380 4269
L112356 4294
L112332 4342
" />
</g><path d="M23622 77955
L23622 78742
" />
<path d="M43307 77955
L43307 78742
" />
<path d="M62992 77955
L62992 78742
" />
<path d="M82677 77955
L82677 78742
" />
<path d="M102362 77955
L102362 78742
" />
<text x="13779.527559" y="78605.196850"
textLength="547.440945" font-size="682.401575" lengthAdjust="spacingAndGlyphs"
text-anchor="start" opacity="0">1</text>
<g class="stroked-text"><desc>1</desc>
<path d="M14199 78580
L13907 78580
" />
<path d="M14053 78580
L14053 78068
L14004 78142
L13955 78190
L13907 78215
" />
</g><text x="33464.566929" y="78605.196850"
textLength="547.440945" font-size="682.401575" lengthAdjust="spacingAndGlyphs"
text-anchor="start" opacity="0">2</text>
<g class="stroked-text"><desc>2</desc>
<path d="M33592 78117
L33616 78093
L33665 78068
L33787 78068
L33835 78093
L33860 78117
L33884 78166
L33884 78215
L33860 78288
L33567 78580
L33884 78580
" />
</g><text x="53149.606299" y="78605.196850"
textLength="547.440945" font-size="682.401575" lengthAdjust="spacingAndGlyphs"
text-anchor="start" opacity="0">3</text>
<g class="stroked-text"><desc>3</desc>
<path d="M53252 78068
L53569 78068
L53398 78263
L53472 78263
L53520 78288
L53545 78312
L53569 78361
L53569 78483
L53545 78532
L53520 78556
L53472 78580
L53325 78580
L53277 78556
L53252 78532
" />
</g><text x="72834.645669" y="78605.196850"
textLength="547.440945" font-size="682.401575" lengthAdjust="spacingAndGlyphs"
text-anchor="start" opacity="0">4</text>
<g class="stroked-text"><desc>4</desc>
<path d="M73205 78239
L73205 78580
" />
<path d="M73083 78044
L72962 78410
L73278 78410
" />
</g><text x="92519.685039" y="78605.196850"
textLength="547.440945" font-size="682.401575" lengthAdjust="spacingAndGlyphs"
text-anchor="start" opacity="0">5</text>
<g class="stroked-text"><desc>5</desc>
<path d="M92915 78068
L92671 78068
L92647 78312
L92671 78288
L92720 78263
L92842 78263
L92890 78288
L92915 78312
L92939 78361
L92939 78483
L92915 78532
L92890 78556
L92842 78580
L92720 78580
L92671 78556
L92647 78532
" />
</g><text x="112204.724409" y="78605.196850"
textLength="547.440945" font-size="682.401575" lengthAdjust="spacingAndGlyphs"
text-anchor="start" opacity="0">6</text>
<g class="stroked-text"><desc>6</desc>
<path d="M112575 78068
L112478 78068
L112429 78093
L112405 78117
L112356 78190
L112332 78288
L112332 78483
L112356 78532
L112380 78556
L112429 78580
L112527 78580
L112575 78556
L112600 78532
L112624 78483
L112624 78361
L112600 78312
L112575 78288
L112527 78263
L112429 78263
L112380 78288
L112356 78312
L112332 78361
" />
</g><path d="M3937 23622
L4724 23622
" />
<path d="M3937 43307
L4724 43307
" />
<path d="M3937 62992
L4724 62992
" />
<text x="4330.708661" y="14035.433071"
textLength="498.700787" font-size="682.401575" lengthAdjust="spacingAndGlyphs"
text-anchor="middle" opacity="0">A</text>
<g class="stroked-text"><desc>A</desc>
<path d="M4208 13864
L4452 13864
" />
<path d="M4160 14011
L4330 13499
L4501 14011
" />
</g><text x="4330.708661" y="33720.472441"
textLength="571.811024" font-size="682.401575" lengthAdjust="spacingAndGlyphs"
text-anchor="middle" opacity="0">B</text>
<g class="stroked-text"><desc>B</desc>
<path d="M4367 33427
L4440 33452
L4464 33476
L4489 33525
L4489 33598
L4464 33647
L4440 33671
L4391 33696
L4196 33696
L4196 33184
L4367 33184
L4415 33208
L4440 33233
L4464 33281
L4464 33330
L4440 33379
L4415 33403
L4367 33427
L4196 33427
" />
</g><text x="4330.708661" y="53405.511811"
textLength="571.811024" font-size="682.401575" lengthAdjust="spacingAndGlyphs"
text-anchor="middle" opacity="0">C</text>
<g class="stroked-text"><desc>C</desc>
<path d="M4489 53332
L4464 53356
L4391 53381
L4342 53381
L4269 53356
L4221 53307
L4196 53259
L4172 53161
L4172 53088
L4196 52991
L4221 52942
L4269 52893
L4342 52869
L4391 52869
L4464 52893
L4489 52918
" />
</g><text x="4330.708661" y="73090.551181"
textLength="571.811024" font-size="682.401575" lengthAdjust="spacingAndGlyphs"
text-anchor="middle" opacity="0">D</text>
<g class="stroked-text"><desc>D</desc>
<path d="M4196 73066
L4196 72554
L4318 72554
L4391 72578
L4440 72627
L4464 72676
L4489 72773
L4489 72846
L4464 72944
L4440 72993
L4391 73041
L4318 73066
L4196 73066
" />
</g><path d="M112992 23622
L112205 23622
" />
<path d="M112992 43307
L112205 43307
" />
<path d="M112992 62992
L112205 62992
" />
<text x="112599.291339" y="14035.433071"
textLength="498.700787" font-size="682.401575" lengthAdjust="spacingAndGlyphs"
text-anchor="middle" opacity="0">A</text>
<g class="stroked-text"><desc>A</desc>
<path d="M112477 13864
L112721 13864
" />
<path d="M112428 14011
L112599 13499
L112769 14011
" />
</g><text x="112599.291339" y="33720.472441"
textLength="571.811024" font-size="682.401575" lengthAdjust="spacingAndGlyphs"
text-anchor="middle" opacity="0">B</text>
<g class="stroked-text"><desc>B</desc>
<path d="M112635 33427
L112708 33452
L112733 33476
L112757 33525
L112757 33598
L112733 33647
L112708 33671
L112660 33696
L112465 33696
L112465 33184
L112635 33184
L112684 33208
L112708 33233
L112733 33281
L112733 33330
L112708 33379
L112684 33403
L112635 33427
L112465 33427
" />
</g><text x="112599.291339" y="53405.511811"
textLength="571.811024" font-size="682.401575" lengthAdjust="spacingAndGlyphs"
text-anchor="middle" opacity="0">C</text>
<g class="stroked-text"><desc>C</desc>
<path d="M112757 53332
L112733 53356
L112660 53381
L112611 53381
L112538 53356
L112489 53307
L112465 53259
L112440 53161
L112440 53088
L112465 52991
L112489 52942
L112538 52893
L112611 52869
L112660 52869
L112733 52893
L112757 52918
" />
</g><text x="112599.291339" y="73090.551181"
textLength="571.811024" font-size="682.401575" lengthAdjust="spacingAndGlyphs"
text-anchor="middle" opacity="0">D</text>
<g class="stroked-text"><desc>D</desc>
<path d="M112465 73066
L112465 72554
L112587 72554
L112660 72578
L112708 72627
L112733 72676
L112757 72773
L112757 72846
L112733 72944
L112708 72993
L112660 73041
L112587 73066
L112465 73066
" />
</g><text x="78741.023622" y="76321.732283"
textLength="2759.645669" font-size="787.401575" lengthAdjust="spacingAndGlyphs"
text-anchor="start" opacity="0">Date: </text>
<g class="stroked-text"><desc>Date: </desc>
<path d="M78911 76293
L78911 75703
L79052 75703
L79136 75731
L79192 75787
L79220 75843
L79249 75956
L79249 76040
L79220 76152
L79192 76209
L79136 76265
L79052 76293
L78911 76293
" />
<path d="M79755 76293
L79755 75984
L79727 75928
L79670 75899
L79558 75899
L79502 75928
" />
<path d="M79755 76265
L79699 76293
L79558 76293
L79502 76265
L79474 76209
L79474 76152
L79502 76096
L79558 76068
L79699 76068
L79755 76040
" />
<path d="M79952 75899
L80177 75899
" />
<path d="M80036 75703
L80036 76209
L80064 76265
L80120 76293
L80177 76293
" />
<path d="M80598 76265
L80542 76293
L80430 76293
L80373 76265
L80345 76209
L80345 75984
L80373 75928
L80430 75899
L80542 75899
L80598 75928
L80627 75984
L80627 76040
L80345 76096
" />
<path d="M80880 76237
L80908 76265
L80880 76293
L80852 76265
L80880 76237
L80880 76293
" />
<path d="M80880 75928
L80908 75956
L80880 75984
L80852 75956
L80880 75928
L80880 75984
" />
</g><path d="M69685 76577
L112205 76577
" />
<text x="70079.606299" y="77424.094488"
textLength="26100.511811" font-size="787.401575" lengthAdjust="spacingAndGlyphs"
text-anchor="start" opacity="0">KiCad E.D.A.  kicad 6.0.8-f2edbf62ab~116~ubuntu20.04.1</text>
<g class="stroked-text"><desc>KiCad E.D.A.  kicad 6.0.8-f2edbf62ab~116~ubuntu20.04.1</desc>
<path d="M70250 77395
L70250 76805
" />
<path d="M70587 77395
L70334 77058
" />
<path d="M70587 76805
L70250 77142
" />
<path d="M70840 77395
L70840 77002
" />
<path d="M70840 76805
L70812 76833
L70840 76861
L70868 76833
L70840 76805
L70840 76861
" />
<path d="M71459 77339
L71431 77367
L71346 77395
L71290 77395
L71206 77367
L71150 77311
L71121 77255
L71093 77142
L71093 77058
L71121 76946
L71150 76889
L71206 76833
L71290 76805
L71346 76805
L71431 76833
L71459 76861
" />
<path d="M71965 77395
L71965 77086
L71937 77030
L71881 77002
L71768 77002
L71712 77030
" />
<path d="M71965 77367
L71909 77395
L71768 77395
L71712 77367
L71684 77311
L71684 77255
L71712 77199
L71768 77170
L71909 77170
L71965 77142
" />
<path d="M72499 77395
L72499 76805
" />
<path d="M72499 77367
L72443 77395
L72331 77395
L72274 77367
L72246 77339
L72218 77283
L72218 77114
L72246 77058
L72274 77030
L72331 77002
L72443 77002
L72499 77030
" />
<path d="M73231 77086
L73427 77086
" />
<path d="M73512 77395
L73231 77395
L73231 76805
L73512 76805
" />
<path d="M73765 77339
L73793 77367
L73765 77395
L73737 77367
L73765 77339
L73765 77395
" />
<path d="M74046 77395
L74046 76805
L74187 76805
L74271 76833
L74327 76889
L74355 76946
L74384 77058
L74384 77142
L74355 77255
L74327 77311
L74271 77367
L74187 77395
L74046 77395
" />
<path d="M74637 77339
L74665 77367
L74637 77395
L74609 77367
L74637 77339
L74637 77395
" />
<path d="M74890 77227
L75171 77227
" />
<path d="M74834 77395
L75030 76805
L75227 77395
" />
<path d="M75424 77339
L75452 77367
L75424 77395
L75396 77367
L75424 77339
L75424 77395
" />
<path d="M76605 77395
L76605 76805
" />
<path d="M76661 77170
L76830 77395
" />
<path d="M76830 77002
L76605 77227
" />
<path d="M77083 77395
L77083 77002
" />
<path d="M77083 76805
L77055 76833
L77083 76861
L77111 76833
L77083 76805
L77083 76861
" />
<path d="M77618 77367
L77561 77395
L77449 77395
L77393 77367
L77364 77339
L77336 77283
L77336 77114
L77364 77058
L77393 77030
L77449 77002
L77561 77002
L77618 77030
" />
<path d="M78124 77395
L78124 77086
L78096 77030
L78039 77002
L77927 77002
L77871 77030
" />
<path d="M78124 77367
L78067 77395
L77927 77395
L77871 77367
L77842 77311
L77842 77255
L77871 77199
L77927 77170
L78067 77170
L78124 77142
" />
<path d="M78658 77395
L78658 76805
" />
<path d="M78658 77367
L78602 77395
L78489 77395
L78433 77367
L78405 77339
L78377 77283
L78377 77114
L78405 77058
L78433 77030
L78489 77002
L78602 77002
L78658 77030
" />
<path d="M79642 76805
L79530 76805
L79474 76833
L79445 76861
L79389 76946
L79361 77058
L79361 77283
L79389 77339
L79417 77367
L79474 77395
L79586 77395
L79642 77367
L79670 77339
L79699 77283
L79699 77142
L79670 77086
L79642 77058
L79586 77030
L79474 77030
L79417 77058
L79389 77086
L79361 77142
" />
<path d="M79952 77339
L79980 77367
L79952 77395
L79923 77367
L79952 77339
L79952 77395
" />
<path d="M80345 76805
L80402 76805
L80458 76833
L80486 76861
L80514 76917
L80542 77030
L80542 77170
L80514 77283
L80486 77339
L80458 77367
L80402 77395
L80345 77395
L80289 77367
L80261 77339
L80233 77283
L80205 77170
L80205 77030
L80233 76917
L80261 76861
L80289 76833
L80345 76805
" />
<path d="M80795 77339
L80823 77367
L80795 77395
L80767 77367
L80795 77339
L80795 77395
" />
<path d="M81161 77058
L81105 77030
L81076 77002
L81048 76946
L81048 76917
L81076 76861
L81105 76833
L81161 76805
L81273 76805
L81330 76833
L81358 76861
L81386 76917
L81386 76946
L81358 77002
L81330 77030
L81273 77058
L81161 77058
L81105 77086
L81076 77114
L81048 77170
L81048 77283
L81076 77339
L81105 77367
L81161 77395
L81273 77395
L81330 77367
L81358 77339
L81386 77283
L81386 77170
L81358 77114
L81330 77086
L81273 77058
" />
<path d="M81639 77170
L82089 77170
" />
<path d="M82286 77002
L82511 77002
" />
<path d="M82370 77395
L82370 76889
L82398 76833
L82454 76805
L82511 76805
" />
<path d="M82679 76861
L82708 76833
L82764 76805
L82904 76805
L82961 76833
L82989 76861
L83017 76917
L83017 76974
L82989 77058
L82651 77395
L83017 77395
" />
<path d="M83495 77367
L83439 77395
L83326 77395
L83270 77367
L83242 77311
L83242 77086
L83270 77030
L83326 77002
L83439 77002
L83495 77030
L83523 77086
L83523 77142
L83242 77199
" />
<path d="M84029 77395
L84029 76805
" />
<path d="M84029 77367
L83973 77395
L83860 77395
L83804 77367
L83776 77339
L83748 77283
L83748 77114
L83776 77058
L83804 77030
L83860 77002
L83973 77002
L84029 77030
" />
<path d="M84310 77395
L84310 76805
" />
<path d="M84310 77030
L84367 77002
L84479 77002
L84535 77030
L84564 77058
L84592 77114
L84592 77283
L84564 77339
L84535 77367
L84479 77395
L84367 77395
L84310 77367
" />
<path d="M84760 77002
L84985 77002
" />
<path d="M84845 77395
L84845 76889
L84873 76833
L84929 76805
L84985 76805
" />
<path d="M85435 76805
L85323 76805
L85267 76833
L85238 76861
L85182 76946
L85154 77058
L85154 77283
L85182 77339
L85210 77367
L85267 77395
L85379 77395
L85435 77367
L85463 77339
L85492 77283
L85492 77142
L85463 77086
L85435 77058
L85379 77030
L85267 77030
L85210 77058
L85182 77086
L85154 77142
" />
<path d="M85717 76861
L85745 76833
L85801 76805
L85941 76805
L85998 76833
L86026 76861
L86054 76917
L86054 76974
L86026 77058
L85688 77395
L86054 77395
" />
<path d="M86560 77395
L86560 77086
L86532 77030
L86476 77002
L86363 77002
L86307 77030
" />
<path d="M86560 77367
L86504 77395
L86363 77395
L86307 77367
L86279 77311
L86279 77255
L86307 77199
L86363 77170
L86504 77170
L86560 77142
" />
<path d="M86841 77395
L86841 76805
" />
<path d="M86841 77030
L86898 77002
L87010 77002
L87066 77030
L87094 77058
L87123 77114
L87123 77283
L87094 77339
L87066 77367
L87010 77395
L86898 77395
L86841 77367
" />
<path d="M87291 77170
L87319 77142
L87376 77114
L87488 77170
L87544 77142
L87573 77114
" />
<path d="M88107 77395
L87769 77395
" />
<path d="M87938 77395
L87938 76805
L87882 76889
L87826 76946
L87769 76974
" />
<path d="M88669 77395
L88332 77395
" />
<path d="M88501 77395
L88501 76805
L88444 76889
L88388 76946
L88332 76974
" />
<path d="M89175 76805
L89063 76805
L89007 76833
L88979 76861
L88922 76946
L88894 77058
L88894 77283
L88922 77339
L88950 77367
L89007 77395
L89119 77395
L89175 77367
L89204 77339
L89232 77283
L89232 77142
L89204 77086
L89175 77058
L89119 77030
L89007 77030
L88950 77058
L88922 77086
L88894 77142
" />
<path d="M89400 77170
L89429 77142
L89485 77114
L89597 77170
L89654 77142
L89682 77114
" />
<path d="M90160 77002
L90160 77395
" />
<path d="M89907 77002
L89907 77311
L89935 77367
L89991 77395
L90075 77395
L90132 77367
L90160 77339
" />
<path d="M90441 77395
L90441 76805
" />
<path d="M90441 77030
L90497 77002
L90610 77002
L90666 77030
L90694 77058
L90722 77114
L90722 77283
L90694 77339
L90666 77367
L90610 77395
L90497 77395
L90441 77367
" />
<path d="M91228 77002
L91228 77395
" />
<path d="M90975 77002
L90975 77311
L91003 77367
L91060 77395
L91144 77395
L91200 77367
L91228 77339
" />
<path d="M91510 77002
L91510 77395
" />
<path d="M91510 77058
L91538 77030
L91594 77002
L91678 77002
L91735 77030
L91763 77086
L91763 77395
" />
<path d="M91960 77002
L92184 77002
" />
<path d="M92044 76805
L92044 77311
L92072 77367
L92128 77395
L92184 77395
" />
<path d="M92634 77002
L92634 77395
" />
<path d="M92381 77002
L92381 77311
L92409 77367
L92466 77395
L92550 77395
L92606 77367
L92634 77339
" />
<path d="M92887 76861
L92916 76833
L92972 76805
L93112 76805
L93169 76833
L93197 76861
L93225 76917
L93225 76974
L93197 77058
L92859 77395
L93225 77395
" />
<path d="M93591 76805
L93647 76805
L93703 76833
L93731 76861
L93759 76917
L93787 77030
L93787 77170
L93759 77283
L93731 77339
L93703 77367
L93647 77395
L93591 77395
L93534 77367
L93506 77339
L93478 77283
L93450 77170
L93450 77030
L93478 76917
L93506 76861
L93534 76833
L93591 76805
" />
<path d="M94040 77339
L94069 77367
L94040 77395
L94012 77367
L94040 77339
L94040 77395
" />
<path d="M94434 76805
L94490 76805
L94547 76833
L94575 76861
L94603 76917
L94631 77030
L94631 77170
L94603 77283
L94575 77339
L94547 77367
L94490 77395
L94434 77395
L94378 77367
L94350 77339
L94322 77283
L94294 77170
L94294 77030
L94322 76917
L94350 76861
L94378 76833
L94434 76805
" />
<path d="M95137 77002
L95137 77395
" />
<path d="M94997 76777
L94856 77199
L95222 77199
" />
<path d="M95447 77339
L95475 77367
L95447 77395
L95418 77367
L95447 77339
L95447 77395
" />
<path d="M96037 77395
L95700 77395
" />
<path d="M95868 77395
L95868 76805
L95812 76889
L95756 76946
L95700 76974
" />
</g><path d="M69685 75396
L112205 75396
" />
</g>
<g style="fill:#840000; fill-opacity:0.0; 
stroke:#840000; stroke-width:118.110236; stroke-opacity:1; 
stroke-linecap:round; stroke-linejoin:round;">
<text x="103544.173228" y="76321.732283"
textLength="2337.834646" font-size="787.401575" lengthAdjust="spacingAndGlyphs"
text-anchor="start" opacity="0">Rev: </text>
<g class="stroked-text"><desc>Rev: </desc>
<path d="M104098 76293
L103902 76012
" />
<path d="M103761 76293
L103761 75703
L103986 75703
L104042 75731
L104070 75759
L104098 75815
L104098 75899
L104070 75956
L104042 75984
L103986 76012
L103761 76012
" />
<path d="M104577 76265
L104520 76293
L104408 76293
L104352 76265
L104323 76209
L104323 75984
L104352 75928
L104408 75899
L104520 75899
L104577 75928
L104605 75984
L104605 76040
L104323 76096
" />
<path d="M104802 75899
L104942 76293
L105083 75899
" />
<path d="M105308 76237
L105336 76265
L105308 76293
L105280 76265
L105308 76237
L105308 76293
" />
<path d="M105308 75928
L105336 75956
L105308 75984
L105280 75956
L105308 75928
L105308 75984
" />
</g></g>
<g style="fill:#840000; fill-opacity:0.0; 
stroke:#840000; stroke-width:60.000000; stroke-opacity:1; 
stroke-linecap:round; stroke-linejoin:round;">
<text x="70079.606299" y="76321.732283"
textLength="3781.220472" font-size="787.401575" lengthAdjust="spacingAndGlyphs"
text-anchor="start" opacity="0">Size: A4</text>
<g class="stroked-text"><desc>Size: A4</desc>
<path d="M70222 76265
L70306 76293
L70447 76293
L70503 76265
L70531 76237
L70559 76181
L70559 76124
L70531 76068
L70503 76040
L70447 76012
L70334 75984
L70278 75956
L70250 75928
L70222 75871
L70222 75815
L70250 75759
L70278 75731
L70334 75703
L70475 75703
L70559 75731
" />
<path d="M70812 76293
L70812 75899
" />
<path d="M70812 75703
L70784 75731
L70812 75759
L70840 75731
L70812 75703
L70812 75759
" />
<path d="M71037 75899
L71346 75899
L71037 76293
L71346 76293
" />
<path d="M71796 76265
L71740 76293
L71628 76293
L71571 76265
L71543 76209
L71543 75984
L71571 75928
L71628 75899
L71740 75899
L71796 75928
L71825 75984
L71825 76040
L71543 76096
" />
<path d="M72078 76237
L72106 76265
L72078 76293
L72049 76265
L72078 76237
L72078 76293
" />
<path d="M72078 75928
L72106 75956
L72078 75984
L72049 75956
L72078 75928
L72078 75984
" />
<path d="M72781 76124
L73062 76124
" />
<path d="M72724 76293
L72921 75703
L73118 76293
" />
<path d="M73568 75899
L73568 76293
" />
<path d="M73427 75674
L73287 76096
L73652 76096
" />
</g><text x="103544.173228" y="77424.094488"
textLength="3350.196850" font-size="787.401575" lengthAdjust="spacingAndGlyphs"
text-anchor="start" opacity="0">Id: 1/1</text>
<g class="stroked-text"><desc>Id: 1/1</desc>
<path d="M103714 77395
L103714 76805
" />
<path d="M104249 77395
L104249 76805
" />
<path d="M104249 77367
L104192 77395
L104080 77395
L104024 77367
L103995 77339
L103967 77283
L103967 77114
L103995 77058
L104024 77030
L104080 77002
L104192 77002
L104249 77030
" />
<path d="M104530 77339
L104558 77367
L104530 77395
L104502 77367
L104530 77339
L104530 77395
" />
<path d="M104530 77030
L104558 77058
L104530 77086
L104502 77058
L104530 77030
L104530 77086
" />
<path d="M105570 77395
L105233 77395
" />
<path d="M105402 77395
L105402 76805
L105345 76889
L105289 76946
L105233 76974
" />
<path d="M106245 76777
L105739 77536
" />
<path d="M106751 77395
L106414 77395
" />
<path d="M106583 77395
L106583 76805
L106526 76889
L106470 76946
L106414 76974
" />
</g><path d="M69685 73821
L112205 73821
" />
</g>
<g style="fill:#840000; fill-opacity:0.0; 
stroke:#840000; stroke-width:157.480315; stroke-opacity:1; 
stroke-linecap:round; stroke-linejoin:round;">
<text x="70079.606299" y="74924.094488"
textLength="3705.511811" font-size="1049.842520" lengthAdjust="spacingAndGlyphs"
text-anchor="start" opacity="0">Title: </text>
<g class="stroked-text"><desc>Title: </desc>
<path d="M70360 74099
L70810 74099
" />
<path d="M70486 74886
L70585 74099
" />
<path d="M70974 74886
L71039 74361
" />
<path d="M71072 74099
L71030 74136
L71063 74174
L71105 74136
L71072 74099
L71063 74174
" />
<path d="M71302 74361
L71602 74361
" />
<path d="M71447 74099
L71363 74774
L71391 74849
L71461 74886
L71536 74886
" />
<path d="M71911 74886
L71841 74849
L71812 74774
L71897 74099
" />
<path d="M72516 74849
L72436 74886
L72286 74886
L72216 74849
L72187 74774
L72225 74474
L72272 74399
L72352 74361
L72501 74361
L72572 74399
L72600 74474
L72591 74549
L72206 74624
" />
<path d="M72895 74811
L72928 74849
L72886 74886
L72853 74849
L72895 74811
L72886 74886
" />
<path d="M72947 74399
L72980 74436
L72937 74474
L72905 74436
L72947 74399
L72937 74474
" />
</g></g>
<g style="fill:#840000; fill-opacity:0.0; 
stroke:#840000; stroke-width:60.000000; stroke-opacity:1; 
stroke-linecap:round; stroke-linejoin:round;">
<text x="70079.606299" y="73408.346457"
textLength="10047.244094" font-size="787.401575" lengthAdjust="spacingAndGlyphs"
text-anchor="start" opacity="0">File: opamp.kicad_sch</text>
<g class="stroked-text"><desc>File: opamp.kicad_sch</desc>
<path d="M70447 73070
L70250 73070
" />
<path d="M70250 73380
L70250 72789
L70531 72789
" />
<path d="M70756 73380
L70756 72986
" />
<path d="M70756 72789
L70728 72817
L70756 72845
L70784 72817
L70756 72789
L70756 72845
" />
<path d="M71121 73380
L71065 73352
L71037 73295
L71037 72789
" />
<path d="M71571 73352
L71515 73380
L71403 73380
L71346 73352
L71318 73295
L71318 73070
L71346 73014
L71403 72986
L71515 72986
L71571 73014
L71600 73070
L71600 73127
L71318 73183
" />
<path d="M71853 73323
L71881 73352
L71853 73380
L71825 73352
L71853 73323
L71853 73380
" />
<path d="M71853 73014
L71881 73042
L71853 73070
L71825 73042
L71853 73014
L71853 73070
" />
<path d="M72668 73380
L72612 73352
L72584 73323
L72556 73267
L72556 73098
L72584 73042
L72612 73014
L72668 72986
L72752 72986
L72809 73014
L72837 73042
L72865 73098
L72865 73267
L72837 73323
L72809 73352
L72752 73380
L72668 73380
" />
<path d="M73118 72986
L73118 73577
" />
<path d="M73118 73014
L73174 72986
L73287 72986
L73343 73014
L73371 73042
L73399 73098
L73399 73267
L73371 73323
L73343 73352
L73287 73380
L73174 73380
L73118 73352
" />
<path d="M73905 73380
L73905 73070
L73877 73014
L73821 72986
L73709 72986
L73652 73014
" />
<path d="M73905 73352
L73849 73380
L73709 73380
L73652 73352
L73624 73295
L73624 73239
L73652 73183
L73709 73155
L73849 73155
L73905 73127
" />
<path d="M74187 73380
L74187 72986
" />
<path d="M74187 73042
L74215 73014
L74271 72986
L74355 72986
L74412 73014
L74440 73070
L74440 73380
" />
<path d="M74440 73070
L74468 73014
L74524 72986
L74609 72986
L74665 73014
L74693 73070
L74693 73380
" />
<path d="M74974 72986
L74974 73577
" />
<path d="M74974 73014
L75030 72986
L75143 72986
L75199 73014
L75227 73042
L75255 73098
L75255 73267
L75227 73323
L75199 73352
L75143 73380
L75030 73380
L74974 73352
" />
<path d="M75508 73323
L75537 73352
L75508 73380
L75480 73352
L75508 73323
L75508 73380
" />
<path d="M75790 73380
L75790 72789
" />
<path d="M75846 73155
L76015 73380
" />
<path d="M76015 72986
L75790 73211
" />
<path d="M76268 73380
L76268 72986
" />
<path d="M76268 72789
L76240 72817
L76268 72845
L76296 72817
L76268 72789
L76268 72845
" />
<path d="M76802 73352
L76746 73380
L76633 73380
L76577 73352
L76549 73323
L76521 73267
L76521 73098
L76549 73042
L76577 73014
L76633 72986
L76746 72986
L76802 73014
" />
<path d="M77308 73380
L77308 73070
L77280 73014
L77224 72986
L77111 72986
L77055 73014
" />
<path d="M77308 73352
L77252 73380
L77111 73380
L77055 73352
L77027 73295
L77027 73239
L77055 73183
L77111 73155
L77252 73155
L77308 73127
" />
<path d="M77842 73380
L77842 72789
" />
<path d="M77842 73352
L77786 73380
L77674 73380
L77618 73352
L77589 73323
L77561 73267
L77561 73098
L77589 73042
L77618 73014
L77674 72986
L77786 72986
L77842 73014
" />
<path d="M77983 73436
L78433 73436
" />
<path d="M78546 73352
L78602 73380
L78714 73380
L78771 73352
L78799 73295
L78799 73267
L78771 73211
L78714 73183
L78630 73183
L78574 73155
L78546 73098
L78546 73070
L78574 73014
L78630 72986
L78714 72986
L78771 73014
" />
<path d="M79305 73352
L79249 73380
L79136 73380
L79080 73352
L79052 73323
L79024 73267
L79024 73098
L79052 73042
L79080 73014
L79136 72986
L79249 72986
L79305 73014
" />
<path d="M79558 73380
L79558 72789
" />
<path d="M79811 73380
L79811 73070
L79783 73014
L79727 72986
L79642 72986
L79586 73014
L79558 73042
" />
</g><path d="M69685 71459
L112205 71459
" />
<text x="70079.606299" y="72345.354331"
textLength="3856.417323" font-size="787.401575" lengthAdjust="spacingAndGlyphs"
text-anchor="start" opacity="0">Sheet: /</text>
<g class="stroked-text"><desc>Sheet: /</desc>
<path d="M70222 72289
L70306 72317
L70447 72317
L70503 72289
L70531 72260
L70559 72204
L70559 72148
L70531 72092
L70503 72064
L70447 72035
L70334 72007
L70278 71979
L70250 71951
L70222 71895
L70222 71839
L70250 71782
L70278 71754
L70334 71726
L70475 71726
L70559 71754
" />
<path d="M70812 72317
L70812 71726
" />
<path d="M71065 72317
L71065 72007
L71037 71951
L70981 71923
L70897 71923
L70840 71951
L70812 71979
" />
<path d="M71571 72289
L71515 72317
L71403 72317
L71346 72289
L71318 72232
L71318 72007
L71346 71951
L71403 71923
L71515 71923
L71571 71951
L71600 72007
L71600 72064
L71318 72120
" />
<path d="M72078 72289
L72021 72317
L71909 72317
L71853 72289
L71825 72232
L71825 72007
L71853 71951
L71909 71923
L72021 71923
L72078 71951
L72106 72007
L72106 72064
L71825 72120
" />
<path d="M72274 71923
L72499 71923
" />
<path d="M72359 71726
L72359 72232
L72387 72289
L72443 72317
L72499 72317
" />
<path d="M72696 72260
L72724 72289
L72696 72317
L72668 72289
L72696 72260
L72696 72317
" />
<path d="M72696 71951
L72724 71979
L72696 72007
L72668 71979
L72696 71951
L72696 72007
" />
<path d="M73849 71698
L73343 72457
" />
</g></g>
<g style="fill:#840000; fill-opacity:0.0; 
stroke:#840000; stroke-width:118.110236; stroke-opacity:1; 
stroke-linecap:round; stroke-linejoin:round;">
<text x="70079.606299" y="71164.251969"
textLength="60.000000" font-size="787.401575" lengthAdjust="spacingAndGlyphs"
text-anchor="start" opacity="0"></text>
<g class="stroked-text"><desc></desc>
</g></g>
<g style="fill:#840000; fill-opacity:0.0; 
stroke:#840000; stroke-width:60.000000; stroke-opacity:1; 
stroke-linecap:round; stroke-linejoin:round;">
<text x="70079.606299" y="69983.149606"
textLength="118.110236" font-size="787.401575" lengthAdjust="spacingAndGlyphs"
text-anchor="start" opacity="0"></text>
<g class="stroked-text"><desc></desc>
</g><text x="70079.606299" y="68802.047244"
textLength="60.000000" font-size="787.401575" lengthAdjust="spacingAndGlyphs"
text-anchor="start" opacity="0"></text>
<g class="stroked-text"><desc></desc>
</g><text x="70079.606299" y="67620.944882"
textLength="60.000000" font-size="787.401575" lengthAdjust="spacingAndGlyphs"
text-anchor="start" opacity="0"></text>
<g class="stroked-text"><desc></desc>
</g><text x="70079.606299" y="66439.842520"
textLength="60.000000" font-size="787.401575" lengthAdjust="spacingAndGlyphs"
text-anchor="start" opacity="0"></text>
<g class="stroked-text"><desc></desc>
</g><path d="M77559 75396
L77559 76577
" />
<path d="M102756 75396
L102756 77955
" />
<g >
<path style="fill:#840000; fill-opacity:0.0; 
stroke:#840000; stroke-width:60.000000; stroke-opacity:1; 
stroke-linecap:round; stroke-linejoin:round;fill:none"
d="M 58500.000000,45000.000000
58500.000000,46000.000000
" /> 
</g>
<g style="fill:#840000; fill-opacity:1.0; 
stroke:#840000; stroke-width:60.000000; stroke-opacity:1; 
stroke-linecap:round; stroke-linejoin:round;">
<path style="fill:#840000; fill-opacity:1.0; 
stroke:#840000; stroke-width:60.000000; stroke-opacity:1; 
stroke-linecap:round; stroke-linejoin:round;fill-rule:evenodd;"
d="M 58200.000000,45500.000000
58800.000000,45500.000000
58500.000000,46000.000000
Z" /> 
</g>
<g style="fill:#006464; fill-opacity:0.0; 
stroke:#006464; stroke-width:60.000000; stroke-opacity:1; 
stroke-linecap:round; stroke-linejoin:round;">
<text x="58500.000000" y="47250.000000"
textLength="1440.944882" font-size="666.653543" lengthAdjust="spacingAndGlyphs"
text-anchor="middle" opacity="0">VSS</text>
<g class="stroked-text"><desc>VSS</desc>
<path d="M57857 46726
L58023 47226
L58190 46726
" />
<path d="M58333 47202
L58404 47226
L58523 47226
L58571 47202
L58595 47178
L58619 47130
L58619 47083
L58595 47035
L58571 47011
L58523 46988
L58428 46964
L58380 46940
L58357 46916
L58333 46869
L58333 46821
L58357 46773
L58380 46750
L58428 46726
L58547 46726
L58619 46750
" />
<path d="M58809 47202
L58880 47226
L59000 47226
L59047 47202
L59071 47178
L59095 47130
L59095 47083
L59071 47035
L59047 47011
L59000 46988
L58904 46964
L58857 46940
L58833 46916
L58809 46869
L58809 46821
L58833 46773
L58857 46750
L58904 46726
L59023 46726
L59095 46750
" />
</g></g>
</g>
<g style="fill:#006464; fill-opacity:0.0; 
stroke:#006464; stroke-width:60.000000; stroke-opacity:1; 
stroke-linecap:round; stroke-linejoin:round;">
<g >
</g>
<g style="fill:#840000; fill-opacity:0.0; 
stroke:#840000; stroke-width:60.000000; stroke-opacity:1; 
stroke-linecap:round; stroke-linejoin:round;">
<path style="fill:#840000; fill-opacity:0.0; 
stroke:#840000; stroke-width:60.000000; stroke-opacity:1; 
stroke-linecap:round; stroke-linejoin:round;fill:none"
d="M 45500.000000,30000.000000
45000.000000,30000.000000
45000.000000,30500.000000
44500.000000,30000.000000
45000.000000,29500.000000
45000.000000,30000.000000
" /> 
</g>
<g style="fill:#006464; fill-opacity:0.0; 
stroke:#006464; stroke-width:60.000000; stroke-opacity:1; 
stroke-linecap:round; stroke-linejoin:round;">
<text x="43293.149606" y="30249.960630"
textLength="1583.818898" font-size="666.653543" lengthAdjust="spacingAndGlyphs"
text-anchor="middle" opacity="0">GND</text>
<g class="stroked-text"><desc>GND</desc>
<path d="M42912 29749
L42864 29726
L42793 29726
L42721 29749
L42674 29797
L42650 29845
L42626 29940
L42626 30011
L42650 30107
L42674 30154
L42721 30202
L42793 30226
L42840 30226
L42912 30202
L42935 30178
L42935 30011
L42840 30011
" />
<path d="M43150 30226
L43150 29726
L43435 30226
L43435 29726
" />
<path d="M43674 30226
L43674 29726
L43793 29726
L43864 29749
L43912 29797
L43935 29845
L43959 29940
L43959 30011
L43935 30107
L43912 30154
L43864 30202
L43793 30226
L43674 30226
" />
</g></g>
</g>
<g style="fill:#006464; fill-opacity:0.0; 
stroke:#006464; stroke-width:60.000000; stroke-opacity:1; 
stroke-linecap:round; stroke-linejoin:round;">
<g >
</g>
<g style="fill:#840000; fill-opacity:0.0; 
stroke:#840000; stroke-width:60.000000; stroke-opacity:1; 
stroke-linecap:round; stroke-linejoin:round;">
</g>
<g style="fill:#FFFFC2; fill-opacity:0.0; 
stroke:#FFFFC2; stroke-width:60.000000; stroke-opacity:1; 
stroke-linecap:round; stroke-linejoin:round;">
</g>
<g style="fill:#FFFFC2; fill-opacity:0.6; 
stroke:#FFFFC2; stroke-width:0.039370; stroke-opacity:1; 
stroke-linecap:round; stroke-linejoin:round;">
<rect x="43000.000000" y="36000.000000" width="1000.000000" height="2000.000000" rx="0.000000" />
</g>
<g style="fill:#840000; fill-opacity:0.6; 
stroke:#840000; stroke-width:0.039370; stroke-opacity:1; 
stroke-linecap:round; stroke-linejoin:round;">
</g>
<g style="fill:#840000; fill-opacity:0.0; 
stroke:#840000; stroke-width:100.000000; stroke-opacity:1; 
stroke-linecap:round; stroke-linejoin:round;">
<rect x="43000.000000" y="36000.000000" width="1000.000000" height="2000.000000" rx="0.000000" />
</g>
<g style="fill:#840000; fill-opacity:0.0; 
stroke:#840000; stroke-width:60.000000; stroke-opacity:1; 
stroke-linecap:round; stroke-linejoin:round;">
<rect x="43500.000000" y="37450.000000" width="500.000000" height="100.000000" rx="0.000000" />
<rect x="43500.000000" y="36450.000000" width="500.000000" height="100.000000" rx="0.000000" />
</g>
<g style="fill:#840000; fill-opacity:0.0; 
stroke:#840000; stroke-width:100.000000; stroke-opacity:1; 
stroke-linecap:round; stroke-linejoin:round;">
<rect x="43000.000000" y="36000.000000" width="1000.000000" height="2000.000000" rx="0.000000" />
</g>
<g style="fill:#840000; fill-opacity:0.0; 
stroke:#840000; stroke-width:60.000000; stroke-opacity:1; 
stroke-linecap:round; stroke-linejoin:round;">
<path d="M44000 36500
L45500 36500
" />
</g>
<g style="fill:#A90000; fill-opacity:0.0; 
stroke:#A90000; stroke-width:60.000000; stroke-opacity:1; 
stroke-linecap:round; stroke-linejoin:round;">
<text x="44750.000000" y="36400.000000"
textLength="536.181102" font-size="666.653543" lengthAdjust="spacingAndGlyphs"
text-anchor="middle" opacity="0">1</text>
<g class="stroked-text"><desc>1</desc>
<path d="M44892 36376
L44607 36376
" />
<path d="M44750 36376
L44750 35876
L44702 35947
L44654 35995
L44607 36019
" />
</g></g>
<g style="fill:#840000; fill-opacity:0.0; 
stroke:#840000; stroke-width:60.000000; stroke-opacity:1; 
stroke-linecap:round; stroke-linejoin:round;">
<path d="M44000 37500
L45500 37500
" />
</g>
<g style="fill:#A90000; fill-opacity:0.0; 
stroke:#A90000; stroke-width:60.000000; stroke-opacity:1; 
stroke-linecap:round; stroke-linejoin:round;">
<text x="44750.000000" y="37400.000000"
textLength="536.181102" font-size="666.653543" lengthAdjust="spacingAndGlyphs"
text-anchor="middle" opacity="0">2</text>
<g class="stroked-text"><desc>2</desc>
<path d="M44607 36923
L44630 36900
L44678 36876
L44797 36876
L44845 36900
L44869 36923
L44892 36971
L44892 37019
L44869 37090
L44583 37376
L44892 37376
" />
</g></g>
<g style="fill:#006464; fill-opacity:0.0; 
stroke:#006464; stroke-width:60.000000; stroke-opacity:1; 
stroke-linecap:round; stroke-linejoin:round;">
<text x="43499.960630" y="34249.960630"
textLength="917.125984" font-size="666.653543" lengthAdjust="spacingAndGlyphs"
text-anchor="middle" opacity="0">J1</text>
<g class="stroked-text"><desc>J1</desc>
<path d="M43333 33726
L43333 34083
L43309 34154
L43261 34202
L43190 34226
L43142 34226
" />
<path d="M43833 34226
L43547 34226
" />
<path d="M43690 34226
L43690 33726
L43642 33797
L43595 33845
L43547 33868
" />
</g><text x="43500.000000" y="35249.960630"
textLength="1940.944882" font-size="666.653543" lengthAdjust="spacingAndGlyphs"
text-anchor="middle" opacity="0">Input</text>
<g class="stroked-text"><desc>Input</desc>
<path d="M42678 35226
L42678 34726
" />
<path d="M42916 34892
L42916 35226
" />
<path d="M42916 34940
L42940 34916
L42988 34892
L43059 34892
L43107 34916
L43130 34964
L43130 35226
" />
<path d="M43369 34892
L43369 35392
" />
<path d="M43369 34916
L43416 34892
L43511 34892
L43559 34916
L43583 34940
L43607 34988
L43607 35130
L43583 35178
L43559 35202
L43511 35226
L43416 35226
L43369 35202
" />
<path d="M44035 34892
L44035 35226
" />
<path d="M43821 34892
L43821 35154
L43845 35202
L43892 35226
L43964 35226
L44011 35202
L44035 35178
" />
<path d="M44202 34892
L44392 34892
" />
<path d="M44273 34726
L44273 35154
L44297 35202
L44345 35226
L44392 35226
" />
</g></g>
</g>
<g style="fill:#006464; fill-opacity:0.0; 
stroke:#006464; stroke-width:60.000000; stroke-opacity:1; 
stroke-linecap:round; stroke-linejoin:round;">
<g >
</g>
<g style="fill:#840000; fill-opacity:0.0; 
stroke:#840000; stroke-width:60.000000; stroke-opacity:1; 
stroke-linecap:round; stroke-linejoin:round;">
<path style="fill:#840000; fill-opacity:0.0; 
stroke:#840000; stroke-width:60.000000; stroke-opacity:1; 
stroke-linecap:round; stroke-linejoin:round;fill:none"
d="M 70500.000000,31500.000000
70500.000000,32500.000000
" /> 
</g>
<g style="fill:#840000; fill-opacity:1.0; 
stroke:#840000; stroke-width:60.000000; stroke-opacity:1; 
stroke-linecap:round; stroke-linejoin:round;">
<path style="fill:#840000; fill-opacity:1.0; 
stroke:#840000; stroke-width:60.000000; stroke-opacity:1; 
stroke-linecap:round; stroke-linejoin:round;fill-rule:evenodd;"
d="M 70200.000000,32000.000000
70800.000000,32000.000000
70500.000000,32500.000000
Z" /> 
</g>
<g style="fill:#006464; fill-opacity:0.0; 
stroke:#006464; stroke-width:60.000000; stroke-opacity:1; 
stroke-linecap:round; stroke-linejoin:round;">
<text x="70500.000000" y="33750.000000"
textLength="1440.944882" font-size="666.653543" lengthAdjust="spacingAndGlyphs"
text-anchor="middle" opacity="0">VSS</text>
<g class="stroked-text"><desc>VSS</desc>
<path d="M69857 33226
L70023 33726
L70190 33226
" />
<path d="M70333 33702
L70404 33726
L70523 33726
L70571 33702
L70595 33678
L70619 33630
L70619 33583
L70595 33535
L70571 33511
L70523 33488
L70428 33464
L70380 33440
L70357 33416
L70333 33369
L70333 33321
L70357 33273
L70380 33250
L70428 33226
L70547 33226
L70619 33250
" />
<path d="M70809 33702
L70880 33726
L71000 33726
L71047 33702
L71071 33678
L71095 33630
L71095 33583
L71071 33535
L71047 33511
L71000 33488
L70904 33464
L70857 33440
L70833 33416
L70809 33369
L70809 33321
L70833 33273
L70857 33250
L70904 33226
L71023 33226
L71095 33250
" />
</g></g>
</g>
<g style="fill:#006464; fill-opacity:0.0; 
stroke:#006464; stroke-width:60.000000; stroke-opacity:1; 
stroke-linecap:round; stroke-linejoin:round;">
<g >
</g>
<g style="fill:#840000; fill-opacity:0.0; 
stroke:#840000; stroke-width:60.000000; stroke-opacity:1; 
stroke-linecap:round; stroke-linejoin:round;">
</g>
<g style="fill:#FFFFC2; fill-opacity:0.0; 
stroke:#FFFFC2; stroke-width:60.000000; stroke-opacity:1; 
stroke-linecap:round; stroke-linejoin:round;">
</g>
<g style="fill:#FFFFC2; fill-opacity:0.6; 
stroke:#FFFFC2; stroke-width:0.039370; stroke-opacity:1; 
stroke-linecap:round; stroke-linejoin:round;">
<rect x="68500.000000" y="37000.000000" width="1000.000000" height="2000.000000" rx="0.000000" />
</g>
<g style="fill:#840000; fill-opacity:0.6; 
stroke:#840000; stroke-width:0.039370; stroke-opacity:1; 
stroke-linecap:round; stroke-linejoin:round;">
</g>
<g style="fill:#840000; fill-opacity:0.0; 
stroke:#840000; stroke-width:100.000000; stroke-opacity:1; 
stroke-linecap:round; stroke-linejoin:round;">
<rect x="68500.000000" y="37000.000000" width="1000.000000" height="2000.000000" rx="0.000000" />
</g>
<g style="fill:#840000; fill-opacity:0.0; 
stroke:#840000; stroke-width:60.000000; stroke-opacity:1; 
stroke-linecap:round; stroke-linejoin:round;">
<rect x="68500.000000" y="38450.000000" width="500.000000" height="100.000000" rx="0.000000" />
<rect x="68500.000000" y="37450.000000" width="500.000000" height="100.000000" rx="0.000000" />
</g>
<g style="fill:#840000; fill-opacity:0.0; 
stroke:#840000; stroke-width:100.000000; stroke-opacity:1; 
stroke-linecap:round; stroke-linejoin:round;">
<rect x="68500.000000" y="37000.000000" width="1000.000000" height="2000.000000" rx="0.000000" />
</g>
<g style="fill:#840000; fill-opacity:0.0; 
stroke:#840000; stroke-width:60.000000; stroke-opacity:1; 
stroke-linecap:round; stroke-linejoin:round;">
<path d="M68500 37500
L67000 37500
" />
</g>
<g style="fill:#A90000; fill-opacity:0.0; 
stroke:#A90000; stroke-width:60.000000; stroke-opacity:1; 
stroke-linecap:round; stroke-linejoin:round;">
<text x="67750.000000" y="37400.000000"
textLength="536.181102" font-size="666.653543" lengthAdjust="spacingAndGlyphs"
text-anchor="middle" opacity="0">1</text>
<g class="stroked-text"><desc>1</desc>
<path d="M67892 37376
L67607 37376
" />
<path d="M67750 37376
L67750 36876
L67702 36947
L67654 36995
L67607 37019
" />
</g></g>
<g style="fill:#840000; fill-opacity:0.0; 
stroke:#840000; stroke-width:60.000000; stroke-opacity:1; 
stroke-linecap:round; stroke-linejoin:round;">
<path d="M68500 38500
L67000 38500
" />
</g>
<g style="fill:#A90000; fill-opacity:0.0; 
stroke:#A90000; stroke-width:60.000000; stroke-opacity:1; 
stroke-linecap:round; stroke-linejoin:round;">
<text x="67750.000000" y="38400.000000"
textLength="536.181102" font-size="666.653543" lengthAdjust="spacingAndGlyphs"
text-anchor="middle" opacity="0">2</text>
<g class="stroked-text"><desc>2</desc>
<path d="M67607 37923
L67630 37900
L67678 37876
L67797 37876
L67845 37900
L67869 37923
L67892 37971
L67892 38019
L67869 38090
L67583 38376
L67892 38376
" />
</g></g>
<g style="fill:#006464; fill-opacity:0.0; 
stroke:#006464; stroke-width:60.000000; stroke-opacity:1; 
stroke-linecap:round; stroke-linejoin:round;">
<text x="70459.803150" y="37749.921260"
textLength="917.125984" font-size="666.653543" lengthAdjust="spacingAndGlyphs"
text-anchor="middle" opacity="0">J2</text>
<g class="stroked-text"><desc>J2</desc>
<path d="M70293 37226
L70293 37583
L70269 37654
L70221 37702
L70150 37726
L70102 37726
" />
<path d="M70507 37273
L70531 37249
L70578 37226
L70697 37226
L70745 37249
L70769 37273
L70793 37321
L70793 37368
L70769 37440
L70483 37726
L70793 37726
" />
</g><text x="71257.440945" y="38749.921260"
textLength="2512.362205" font-size="666.653543" lengthAdjust="spacingAndGlyphs"
text-anchor="middle" opacity="0">Output</text>
<g class="stroked-text"><desc>Output</desc>
<path d="M70245 38226
L70340 38226
L70388 38249
L70435 38297
L70459 38392
L70459 38559
L70435 38654
L70388 38702
L70340 38726
L70245 38726
L70197 38702
L70150 38654
L70126 38559
L70126 38392
L70150 38297
L70197 38249
L70245 38226
" />
<path d="M70888 38392
L70888 38726
" />
<path d="M70674 38392
L70674 38654
L70697 38702
L70745 38726
L70816 38726
L70864 38702
L70888 38678
" />
<path d="M71055 38392
L71245 38392
" />
<path d="M71126 38226
L71126 38654
L71150 38702
L71197 38726
L71245 38726
" />
<path d="M71412 38392
L71412 38892
" />
<path d="M71412 38416
L71459 38392
L71555 38392
L71602 38416
L71626 38440
L71650 38487
L71650 38630
L71626 38678
L71602 38702
L71555 38726
L71459 38726
L71412 38702
" />
<path d="M72078 38392
L72078 38726
" />
<path d="M71864 38392
L71864 38654
L71888 38702
L71935 38726
L72007 38726
L72055 38702
L72078 38678
" />
<path d="M72245 38392
L72435 38392
" />
<path d="M72316 38226
L72316 38654
L72340 38702
L72388 38726
L72435 38726
" />
</g></g>
</g>
<g style="fill:#006464; fill-opacity:0.0; 
stroke:#006464; stroke-width:60.000000; stroke-opacity:1; 
stroke-linecap:round; stroke-linejoin:round;">
<g >
</g>
<g style="fill:#840000; fill-opacity:0.0; 
stroke:#840000; stroke-width:60.000000; stroke-opacity:1; 
stroke-linecap:round; stroke-linejoin:round;">
<path style="fill:#840000; fill-opacity:0.0; 
stroke:#840000; stroke-width:60.000000; stroke-opacity:1; 
stroke-linecap:round; stroke-linejoin:round;fill:none"
d="M 66000.000000,41000.000000
66000.000000,41500.000000
66500.000000,41500.000000
66000.000000,42000.000000
65500.000000,41500.000000
66000.000000,41500.000000
" /> 
</g>
<g style="fill:#006464; fill-opacity:0.0; 
stroke:#006464; stroke-width:60.000000; stroke-opacity:1; 
stroke-linecap:round; stroke-linejoin:round;">
<text x="66000.000000" y="43249.960630"
textLength="1583.818898" font-size="666.653543" lengthAdjust="spacingAndGlyphs"
text-anchor="middle" opacity="0">GND</text>
<g class="stroked-text"><desc>GND</desc>
<path d="M65619 42749
L65571 42726
L65500 42726
L65428 42749
L65380 42797
L65357 42845
L65333 42940
L65333 43011
L65357 43107
L65380 43154
L65428 43202
L65500 43226
L65547 43226
L65619 43202
L65642 43178
L65642 43011
L65547 43011
" />
<path d="M65857 43226
L65857 42726
L66142 43226
L66142 42726
" />
<path d="M66380 43226
L66380 42726
L66500 42726
L66571 42749
L66619 42797
L66642 42845
L66666 42940
L66666 43011
L66642 43107
L66619 43154
L66571 43202
L66500 43226
L66380 43226
" />
</g></g>
</g>
<g style="fill:#006464; fill-opacity:0.0; 
stroke:#006464; stroke-width:60.000000; stroke-opacity:1; 
stroke-linecap:round; stroke-linejoin:round;">
<g >
</g>
<g style="fill:#840000; fill-opacity:0.0; 
stroke:#840000; stroke-width:60.000000; stroke-opacity:1; 
stroke-linecap:round; stroke-linejoin:round;">
<path style="fill:#840000; fill-opacity:0.0; 
stroke:#840000; stroke-width:60.000000; stroke-opacity:1; 
stroke-linecap:round; stroke-linejoin:round;fill:none"
d="M 69500.000000,29000.000000
69000.000000,29000.000000
69000.000000,29500.000000
68500.000000,29000.000000
69000.000000,28500.000000
69000.000000,29000.000000
" /> 
</g>
<g style="fill:#006464; fill-opacity:0.0; 
stroke:#006464; stroke-width:60.000000; stroke-opacity:1; 
stroke-linecap:round; stroke-linejoin:round;">
<text x="67293.149606" y="29249.960630"
textLength="1583.818898" font-size="666.653543" lengthAdjust="spacingAndGlyphs"
text-anchor="middle" opacity="0">GND</text>
<g class="stroked-text"><desc>GND</desc>
<path d="M66912 28749
L66864 28726
L66793 28726
L66721 28749
L66674 28797
L66650 28845
L66626 28940
L66626 29011
L66650 29107
L66674 29154
L66721 29202
L66793 29226
L66840 29226
L66912 29202
L66935 29178
L66935 29011
L66840 29011
" />
<path d="M67150 29226
L67150 28726
L67435 29226
L67435 28726
" />
<path d="M67674 29226
L67674 28726
L67793 28726
L67864 28749
L67912 28797
L67935 28845
L67959 28940
L67959 29011
L67935 29107
L67912 29154
L67864 29202
L67793 29226
L67674 29226
" />
</g></g>
</g>
<g style="fill:#006464; fill-opacity:0.0; 
stroke:#006464; stroke-width:60.000000; stroke-opacity:1; 
stroke-linecap:round; stroke-linejoin:round;">
<g >
</g>
<g style="fill:#840000; fill-opacity:0.0; 
stroke:#840000; stroke-width:60.000000; stroke-opacity:1; 
stroke-linecap:round; stroke-linejoin:round;">
</g>
<g style="fill:#840000; fill-opacity:0.0; 
stroke:#840000; stroke-width:200.000000; stroke-opacity:1; 
stroke-linecap:round; stroke-linejoin:round;">
<path style="fill:#840000; fill-opacity:0.0; 
stroke:#840000; stroke-width:200.000000; stroke-opacity:1; 
stroke-linecap:round; stroke-linejoin:round;fill:none"
d="M 51800.000000,30800.000000
51800.000000,29200.000000
" /> 
<path style="fill:#840000; fill-opacity:0.0; 
stroke:#840000; stroke-width:200.000000; stroke-opacity:1; 
stroke-linecap:round; stroke-linejoin:round;fill:none"
d="M 51200.000000,30800.000000
51200.000000,29200.000000
" /> 
</g>
<g style="fill:#840000; fill-opacity:0.0; 
stroke:#840000; stroke-width:60.000000; stroke-opacity:1; 
stroke-linecap:round; stroke-linejoin:round;">
<path d="M51100 30000
L50000 30000
" />
<path d="M51900 30000
L53000 30000
" />
</g>
<g style="fill:#006464; fill-opacity:0.0; 
stroke:#006464; stroke-width:60.000000; stroke-opacity:1; 
stroke-linecap:round; stroke-linejoin:round;">
<text x="51499.960630" y="28750.000000"
textLength="1036.181102" font-size="666.653543" lengthAdjust="spacingAndGlyphs"
text-anchor="middle" opacity="0">C1</text>
<g class="stroked-text"><desc>C1</desc>
<path d="M51416 28678
L51392 28702
L51321 28726
L51273 28726
L51202 28702
L51154 28654
L51130 28607
L51107 28511
L51107 28440
L51130 28345
L51154 28297
L51202 28250
L51273 28226
L51321 28226
L51392 28250
L51416 28273
" />
<path d="M51892 28726
L51607 28726
" />
<path d="M51749 28726
L51749 28226
L51702 28297
L51654 28345
L51607 28369
" />
</g><text x="51500.000000" y="31750.000000"
textLength="1940.944882" font-size="666.653543" lengthAdjust="spacingAndGlyphs"
text-anchor="middle" opacity="0">100n</text>
<g class="stroked-text"><desc>100n</desc>
<path d="M50940 31726
L50654 31726
" />
<path d="M50797 31726
L50797 31226
L50750 31297
L50702 31345
L50654 31369
" />
<path d="M51250 31226
L51297 31226
L51345 31250
L51369 31273
L51392 31321
L51416 31416
L51416 31535
L51392 31630
L51369 31678
L51345 31702
L51297 31726
L51250 31726
L51202 31702
L51178 31678
L51154 31630
L51130 31535
L51130 31416
L51154 31321
L51178 31273
L51202 31250
L51250 31226
" />
<path d="M51726 31226
L51773 31226
L51821 31250
L51845 31273
L51869 31321
L51892 31416
L51892 31535
L51869 31630
L51845 31678
L51821 31702
L51773 31726
L51726 31726
L51678 31702
L51654 31678
L51630 31630
L51607 31535
L51607 31416
L51630 31321
L51654 31273
L51678 31250
L51726 31226
" />
<path d="M52107 31392
L52107 31726
" />
<path d="M52107 31440
L52130 31416
L52178 31392
L52250 31392
L52297 31416
L52321 31464
L52321 31726
" />
</g></g>
</g>
<g style="fill:#006464; fill-opacity:0.0; 
stroke:#006464; stroke-width:60.000000; stroke-opacity:1; 
stroke-linecap:round; stroke-linejoin:round;">
<g >
</g>
<g style="fill:#840000; fill-opacity:0.0; 
stroke:#840000; stroke-width:60.000000; stroke-opacity:1; 
stroke-linecap:round; stroke-linejoin:round;">
</g>
<g style="fill:#840000; fill-opacity:0.0; 
stroke:#840000; stroke-width:100.000000; stroke-opacity:1; 
stroke-linecap:round; stroke-linejoin:round;">
<rect x="48500.000000" y="36100.000000" width="2000.000000" height="800.000000" rx="0.000000" />
</g>
<g style="fill:#840000; fill-opacity:0.0; 
stroke:#840000; stroke-width:60.000000; stroke-opacity:1; 
stroke-linecap:round; stroke-linejoin:round;">
<path d="M48500 36500
L48000 36500
" />
<path d="M50500 36500
L51000 36500
" />
</g>
<g style="fill:#006464; fill-opacity:0.0; 
stroke:#006464; stroke-width:60.000000; stroke-opacity:1; 
stroke-linecap:round; stroke-linejoin:round;">
<text x="49499.960630" y="35750.000000"
textLength="1036.181102" font-size="666.653543" lengthAdjust="spacingAndGlyphs"
text-anchor="middle" opacity="0">R1</text>
<g class="stroked-text"><desc>R1</desc>
<path d="M49416 35726
L49249 35488
" />
<path d="M49130 35726
L49130 35226
L49321 35226
L49368 35250
L49392 35273
L49416 35321
L49416 35392
L49392 35440
L49368 35464
L49321 35488
L49130 35488
" />
<path d="M49892 35726
L49607 35726
" />
<path d="M49749 35726
L49749 35226
L49702 35297
L49654 35345
L49607 35369
" />
</g><text x="49499.960630" y="37750.000000"
textLength="1417.125984" font-size="666.653543" lengthAdjust="spacingAndGlyphs"
text-anchor="middle" opacity="0">10k</text>
<g class="stroked-text"><desc>10k</desc>
<path d="M49202 37726
L48916 37726
" />
<path d="M49059 37726
L49059 37226
L49011 37297
L48964 37345
L48916 37369
" />
<path d="M49511 37226
L49559 37226
L49607 37250
L49630 37273
L49654 37321
L49678 37416
L49678 37535
L49654 37630
L49630 37678
L49607 37702
L49559 37726
L49511 37726
L49464 37702
L49440 37678
L49416 37630
L49392 37535
L49392 37416
L49416 37321
L49440 37273
L49464 37250
L49511 37226
" />
<path d="M49892 37726
L49892 37226
" />
<path d="M49940 37535
L50083 37726
" />
<path d="M50083 37392
L49892 37583
" />
</g></g>
</g>
<g style="fill:#006464; fill-opacity:0.0; 
stroke:#006464; stroke-width:60.000000; stroke-opacity:1; 
stroke-linecap:round; stroke-linejoin:round;">
<g >
</g>
<g style="fill:#840000; fill-opacity:0.0; 
stroke:#840000; stroke-width:60.000000; stroke-opacity:1; 
stroke-linecap:round; stroke-linejoin:round;">
</g>
<g style="fill:#FFFFC2; fill-opacity:0.0; 
stroke:#FFFFC2; stroke-width:60.000000; stroke-opacity:1; 
stroke-linecap:round; stroke-linejoin:round;">
</g>
<g style="fill:#FFFFC2; fill-opacity:0.6; 
stroke:#FFFFC2; stroke-width:0.039370; stroke-opacity:1; 
stroke-linecap:round; stroke-linejoin:round;">
<path style="fill:#FFFFC2; fill-opacity:0.6; 
stroke:#FFFFC2; stroke-width:0.039370; stroke-opacity:1; 
stroke-linecap:round; stroke-linejoin:round;fill-rule:evenodd;"
d="M 57500.000000,35500.000000
61500.000000,37500.000000
57500.000000,39500.000000
Z" /> 
</g>
<g style="fill:#840000; fill-opacity:0.6; 
stroke:#840000; stroke-width:0.039370; stroke-opacity:1; 
stroke-linecap:round; stroke-linejoin:round;">
</g>
<g style="fill:#840000; fill-opacity:0.0; 
stroke:#840000; stroke-width:100.000000; stroke-opacity:1; 
stroke-linecap:round; stroke-linejoin:round;">
<path style="fill:#840000; fill-opacity:0.0; 
stroke:#840000; stroke-width:100.000000; stroke-opacity:1; 
stroke-linecap:round; stroke-linejoin:round;fill:none"
d="M 57500.000000,35500.000000
61500.000000,37500.000000
57500.000000,39500.000000
Z" /> 
<path style="fill:#840000; fill-opacity:0.0; 
stroke:#840000; stroke-width:100.000000; stroke-opacity:1; 
stroke-linecap:round; stroke-linejoin:round;fill:none"
d="M 57500.000000,35500.000000
61500.000000,37500.000000
57500.000000,39500.000000
Z" /> 
</g>
<g style="fill:#840000; fill-opacity:0.0; 
stroke:#840000; stroke-width:60.000000; stroke-opacity:1; 
stroke-linecap:round; stroke-linejoin:round;">
<path d="M59500 36500
L59500 34500
" />
</g>
<g style="fill:#006464; fill-opacity:0.0; 
stroke:#006464; stroke-width:60.000000; stroke-opacity:1; 
stroke-linecap:round; stroke-linejoin:round;">
<g transform="rotate(-90.000000 59500.000000 36550.000000)">
<text x="59500.000000" y="36650.000000"
textLength="802.874016" font-size="266.653543" lengthAdjust="spacingAndGlyphs"
text-anchor="end" opacity="0">NULL</text>
</g>
<g class="stroked-text"><desc>NULL</desc>
<path d="M59590 37275
L59390 37275
L59590 37160
L59390 37160
" />
<path d="M59390 37065
L59552 37065
L59571 37056
L59580 37046
L59590 37027
L59590 36989
L59580 36970
L59571 36960
L59552 36951
L59390 36951
" />
<path d="M59590 36760
L59590 36856
L59390 36856
" />
<path d="M59590 36599
L59590 36694
L59390 36694
" />
</g></g>
<g style="fill:#A90000; fill-opacity:0.0; 
stroke:#A90000; stroke-width:60.000000; stroke-opacity:1; 
stroke-linecap:round; stroke-linejoin:round;">
<g transform="rotate(-90.000000 59400.000000 35500.000000)">
<text x="59400.000000" y="35500.000000"
textLength="536.181102" font-size="666.653543" lengthAdjust="spacingAndGlyphs"
text-anchor="middle" opacity="0">1</text>
</g>
<g class="stroked-text"><desc>1</desc>
<path d="M59376 35357
L59376 35642
" />
<path d="M59376 35500
L58876 35500
L58947 35547
L58995 35595
L59019 35642
" />
</g></g>
<g style="fill:#840000; fill-opacity:0.0; 
stroke:#840000; stroke-width:60.000000; stroke-opacity:1; 
stroke-linecap:round; stroke-linejoin:round;">
<path d="M57500 36500
L56500 36500
" />
</g>
<g style="fill:#006464; fill-opacity:0.0; 
stroke:#006464; stroke-width:60.000000; stroke-opacity:1; 
stroke-linecap:round; stroke-linejoin:round;">
<text x="57550.000000" y="36750.000000"
textLength="679.055118" font-size="666.653543" lengthAdjust="spacingAndGlyphs"
text-anchor="start" opacity="0">-</text>
<g class="stroked-text"><desc>-</desc>
<path d="M57699 36535
L58080 36535
" />
</g></g>
<g style="fill:#A90000; fill-opacity:0.0; 
stroke:#A90000; stroke-width:60.000000; stroke-opacity:1; 
stroke-linecap:round; stroke-linejoin:round;">
<text x="57000.000000" y="36400.000000"
textLength="536.181102" font-size="666.653543" lengthAdjust="spacingAndGlyphs"
text-anchor="middle" opacity="0">2</text>
<g class="stroked-text"><desc>2</desc>
<path d="M56857 35923
L56880 35900
L56928 35876
L57047 35876
L57095 35900
L57119 35923
L57142 35971
L57142 36019
L57119 36090
L56833 36376
L57142 36376
" />
</g></g>
<g style="fill:#840000; fill-opacity:0.0; 
stroke:#840000; stroke-width:60.000000; stroke-opacity:1; 
stroke-linecap:round; stroke-linejoin:round;">
<path d="M57500 38500
L56500 38500
" />
</g>
<g style="fill:#006464; fill-opacity:0.0; 
stroke:#006464; stroke-width:60.000000; stroke-opacity:1; 
stroke-linecap:round; stroke-linejoin:round;">
<text x="57550.000000" y="38750.000000"
textLength="679.055118" font-size="666.653543" lengthAdjust="spacingAndGlyphs"
text-anchor="start" opacity="0">+</text>
<g class="stroked-text"><desc>+</desc>
<path d="M57699 38535
L58080 38535
" />
<path d="M57889 38726
L57889 38345
" />
</g></g>
<g style="fill:#A90000; fill-opacity:0.0; 
stroke:#A90000; stroke-width:60.000000; stroke-opacity:1; 
stroke-linecap:round; stroke-linejoin:round;">
<text x="57000.000000" y="38400.000000"
textLength="536.181102" font-size="666.653543" lengthAdjust="spacingAndGlyphs"
text-anchor="middle" opacity="0">3</text>
<g class="stroked-text"><desc>3</desc>
<path d="M56833 37876
L57142 37876
L56976 38066
L57047 38066
L57095 38090
L57119 38114
L57142 38161
L57142 38280
L57119 38328
L57095 38352
L57047 38376
L56904 38376
L56857 38352
L56833 38328
" />
</g></g>
<g style="fill:#840000; fill-opacity:0.0; 
stroke:#840000; stroke-width:60.000000; stroke-opacity:1; 
stroke-linecap:round; stroke-linejoin:round;">
<path d="M58500 39000
L58500 40500
" />
</g>
<g style="fill:#006464; fill-opacity:0.0; 
stroke:#006464; stroke-width:60.000000; stroke-opacity:1; 
stroke-linecap:round; stroke-linejoin:round;">
<g transform="rotate(-90.000000 58500.000000 38950.000000)">
<text x="58500.000000" y="39200.000000"
textLength="1107.637795" font-size="666.653543" lengthAdjust="spacingAndGlyphs"
text-anchor="start" opacity="0">V-</text>
</g>
<g class="stroked-text"><desc>V-</desc>
<path d="M58226 38872
L58726 38705
L58226 38539
" />
<path d="M58535 38372
L58535 37991
" />
</g></g>
<g style="fill:#A90000; fill-opacity:0.0; 
stroke:#A90000; stroke-width:60.000000; stroke-opacity:1; 
stroke-linecap:round; stroke-linejoin:round;">
<g transform="rotate(-90.000000 58400.000000 39750.000000)">
<text x="58400.000000" y="39750.000000"
textLength="536.181102" font-size="666.653543" lengthAdjust="spacingAndGlyphs"
text-anchor="middle" opacity="0">4</text>
</g>
<g class="stroked-text"><desc>4</desc>
<path d="M58042 39654
L58376 39654
" />
<path d="M57852 39773
L58209 39892
L58209 39583
" />
</g></g>
<g style="fill:#840000; fill-opacity:0.0; 
stroke:#840000; stroke-width:60.000000; stroke-opacity:1; 
stroke-linecap:round; stroke-linejoin:round;">
<path d="M60500 37000
L60500 34500
" />
</g>
<g style="fill:#006464; fill-opacity:0.0; 
stroke:#006464; stroke-width:60.000000; stroke-opacity:1; 
stroke-linecap:round; stroke-linejoin:round;">
<g transform="rotate(-90.000000 60500.000000 37050.000000)">
<text x="60500.000000" y="37150.000000"
textLength="802.874016" font-size="266.653543" lengthAdjust="spacingAndGlyphs"
text-anchor="end" opacity="0">NULL</text>
</g>
<g class="stroked-text"><desc>NULL</desc>
<path d="M60590 37775
L60390 37775
L60590 37660
L60390 37660
" />
<path d="M60390 37565
L60552 37565
L60571 37556
L60580 37546
L60590 37527
L60590 37489
L60580 37470
L60571 37460
L60552 37451
L60390 37451
" />
<path d="M60590 37260
L60590 37356
L60390 37356
" />
<path d="M60590 37099
L60590 37194
L60390 37194
" />
</g></g>
<g style="fill:#A90000; fill-opacity:0.0; 
stroke:#A90000; stroke-width:60.000000; stroke-opacity:1; 
stroke-linecap:round; stroke-linejoin:round;">
<g transform="rotate(-90.000000 60400.000000 35750.000000)">
<text x="60400.000000" y="35750.000000"
textLength="536.181102" font-size="666.653543" lengthAdjust="spacingAndGlyphs"
text-anchor="middle" opacity="0">5</text>
</g>
<g class="stroked-text"><desc>5</desc>
<path d="M59876 35630
L59876 35869
L60114 35892
L60090 35869
L60066 35821
L60066 35702
L60090 35654
L60114 35630
L60161 35607
L60280 35607
L60328 35630
L60352 35654
L60376 35702
L60376 35821
L60352 35869
L60328 35892
" />
</g></g>
<g style="fill:#840000; fill-opacity:0.0; 
stroke:#840000; stroke-width:60.000000; stroke-opacity:1; 
stroke-linecap:round; stroke-linejoin:round;">
<path d="M61500 37500
L62500 37500
" />
</g>
<g style="fill:#A90000; fill-opacity:0.0; 
stroke:#A90000; stroke-width:60.000000; stroke-opacity:1; 
stroke-linecap:round; stroke-linejoin:round;">
<text x="62000.000000" y="37400.000000"
textLength="536.181102" font-size="666.653543" lengthAdjust="spacingAndGlyphs"
text-anchor="middle" opacity="0">6</text>
<g class="stroked-text"><desc>6</desc>
<path d="M62095 36876
L62000 36876
L61952 36900
L61928 36923
L61880 36995
L61857 37090
L61857 37280
L61880 37328
L61904 37352
L61952 37376
L62047 37376
L62095 37352
L62119 37328
L62142 37280
L62142 37161
L62119 37114
L62095 37090
L62047 37066
L61952 37066
L61904 37090
L61880 37114
L61857 37161
" />
</g></g>
<g style="fill:#840000; fill-opacity:0.0; 
stroke:#840000; stroke-width:60.000000; stroke-opacity:1; 
stroke-linecap:round; stroke-linejoin:round;">
<path d="M58500 36000
L58500 34500
" />
</g>
<g style="fill:#006464; fill-opacity:0.0; 
stroke:#006464; stroke-width:60.000000; stroke-opacity:1; 
stroke-linecap:round; stroke-linejoin:round;">
<g transform="rotate(-90.000000 58500.000000 36050.000000)">
<text x="58500.000000" y="36300.000000"
textLength="1107.637795" font-size="666.653543" lengthAdjust="spacingAndGlyphs"
text-anchor="end" opacity="0">V+</text>
</g>
<g class="stroked-text"><desc>V+</desc>
<path d="M58226 37080
L58726 36913
L58226 36746
" />
<path d="M58535 36580
L58535 36199
" />
<path d="M58726 36389
L58345 36389
" />
</g></g>
<g style="fill:#A90000; fill-opacity:0.0; 
stroke:#A90000; stroke-width:60.000000; stroke-opacity:1; 
stroke-linecap:round; stroke-linejoin:round;">
<g transform="rotate(-90.000000 58400.000000 35250.000000)">
<text x="58400.000000" y="35250.000000"
textLength="536.181102" font-size="666.653543" lengthAdjust="spacingAndGlyphs"
text-anchor="middle" opacity="0">7</text>
</g>
<g class="stroked-text"><desc>7</desc>
<path d="M57876 35416
L57876 35083
L58376 35297
" />
</g></g>
<g style="fill:#840000; fill-opacity:0.0; 
stroke:#840000; stroke-width:60.000000; stroke-opacity:1; 
stroke-linecap:round; stroke-linejoin:round;">
<path d="M59500 38500
L59500 40500
" />
<path d="M59350 40350
L59650 40650
" />
<path d="M59650 40350
L59350 40650
" />
</g>
<g style="fill:#006464; fill-opacity:0.0; 
stroke:#006464; stroke-width:60.000000; stroke-opacity:1; 
stroke-linecap:round; stroke-linejoin:round;">
<g transform="rotate(-90.000000 59500.000000 38450.000000)">
<text x="59500.000000" y="38550.000000"
textLength="469.527559" font-size="266.653543" lengthAdjust="spacingAndGlyphs"
text-anchor="start" opacity="0">NC</text>
</g>
<g class="stroked-text"><desc>NC</desc>
<path d="M59590 38372
L59390 38372
L59590 38258
L59390 38258
" />
<path d="M59571 38048
L59580 38058
L59590 38086
L59590 38105
L59580 38134
L59561 38153
L59542 38162
L59504 38172
L59476 38172
L59438 38162
L59419 38153
L59400 38134
L59390 38105
L59390 38086
L59400 38058
L59409 38048
" />
</g></g>
<g style="fill:#A90000; fill-opacity:0.0; 
stroke:#A90000; stroke-width:60.000000; stroke-opacity:1; 
stroke-linecap:round; stroke-linejoin:round;">
<g transform="rotate(-90.000000 59400.000000 39500.000000)">
<text x="59400.000000" y="39500.000000"
textLength="536.181102" font-size="666.653543" lengthAdjust="spacingAndGlyphs"
text-anchor="middle" opacity="0">8</text>
</g>
<g class="stroked-text"><desc>8</desc>
<path d="M59090 39547
L59066 39595
L59042 39619
L58995 39642
L58971 39642
L58923 39619
L58900 39595
L58876 39547
L58876 39452
L58900 39404
L58923 39380
L58971 39357
L58995 39357
L59042 39380
L59066 39404
L59090 39452
L59090 39547
L59114 39595
L59138 39619
L59185 39642
L59280 39642
L59328 39619
L59352 39595
L59376 39547
L59376 39452
L59352 39404
L59328 39380
L59280 39357
L59185 39357
L59138 39380
L59114 39404
L59090 39452
" />
</g></g>
<g style="fill:#006464; fill-opacity:0.0; 
stroke:#006464; stroke-width:60.000000; stroke-opacity:1; 
stroke-linecap:round; stroke-linejoin:round;">
<text x="63500.000000" y="35899.960630"
textLength="1060.000000" font-size="666.653543" lengthAdjust="spacingAndGlyphs"
text-anchor="middle" opacity="0">U1</text>
<g class="stroked-text"><desc>U1</desc>
<path d="M63119 35376
L63119 35780
L63142 35828
L63166 35852
L63214 35876
L63309 35876
L63357 35852
L63380 35828
L63404 35780
L63404 35376
" />
<path d="M63904 35876
L63619 35876
" />
<path d="M63761 35876
L63761 35376
L63714 35447
L63666 35495
L63619 35518
" />
</g><text x="63500.000000" y="36899.960630"
textLength="2417.125984" font-size="666.653543" lengthAdjust="spacingAndGlyphs"
text-anchor="middle" opacity="0">AD711</text>
<g class="stroked-text"><desc>AD711</desc>
<path d="M62416 36733
L62654 36733
" />
<path d="M62369 36876
L62535 36376
L62702 36876
" />
<path d="M62869 36876
L62869 36376
L62988 36376
L63059 36399
L63107 36447
L63130 36495
L63154 36590
L63154 36661
L63130 36757
L63107 36804
L63059 36852
L62988 36876
L62869 36876
" />
<path d="M63321 36376
L63654 36376
L63440 36876
" />
<path d="M64107 36876
L63821 36876
" />
<path d="M63964 36876
L63964 36376
L63916 36447
L63869 36495
L63821 36518
" />
<path d="M64583 36876
L64297 36876
" />
<path d="M64440 36876
L64440 36376
L64392 36447
L64345 36495
L64297 36518
" />
</g></g>
</g>
<g style="fill:#006464; fill-opacity:0.0; 
stroke:#006464; stroke-width:60.000000; stroke-opacity:1; 
stroke-linecap:round; stroke-linejoin:round;">
<g >
</g>
<g style="fill:#840000; fill-opacity:0.0; 
stroke:#840000; stroke-width:60.000000; stroke-opacity:1; 
stroke-linecap:round; stroke-linejoin:round;">
<path style="fill:#840000; fill-opacity:0.0; 
stroke:#840000; stroke-width:60.000000; stroke-opacity:1; 
stroke-linecap:round; stroke-linejoin:round;fill:none"
d="M 45500.000000,44500.000000
45000.000000,44500.000000
45000.000000,45000.000000
44500.000000,44500.000000
45000.000000,44000.000000
45000.000000,44500.000000
" /> 
</g>
<g style="fill:#006464; fill-opacity:0.0; 
stroke:#006464; stroke-width:60.000000; stroke-opacity:1; 
stroke-linecap:round; stroke-linejoin:round;">
<text x="43293.149606" y="44749.960630"
textLength="1583.818898" font-size="666.653543" lengthAdjust="spacingAndGlyphs"
text-anchor="middle" opacity="0">GND</text>
<g class="stroked-text"><desc>GND</desc>
<path d="M42912 44249
L42864 44226
L42793 44226
L42721 44249
L42674 44297
L42650 44345
L42626 44440
L42626 44511
L42650 44607
L42674 44654
L42721 44702
L42793 44726
L42840 44726
L42912 44702
L42935 44678
L42935 44511
L42840 44511
" />
<path d="M43150 44726
L43150 44226
L43435 44726
L43435 44226
" />
<path d="M43674 44726
L43674 44226
L43793 44226
L43864 44249
L43912 44297
L43935 44345
L43959 44440
L43959 44511
L43935 44607
L43912 44654
L43864 44702
L43793 44726
L43674 44726
" />
</g></g>
</g>
<g style="fill:#006464; fill-opacity:0.0; 
stroke:#006464; stroke-width:60.000000; stroke-opacity:1; 
stroke-linecap:round; stroke-linejoin:round;">
<g >
</g>
<g style="fill:#840000; fill-opacity:0.0; 
stroke:#840000; stroke-width:60.000000; stroke-opacity:1; 
stroke-linecap:round; stroke-linejoin:round;">
</g>
<g style="fill:#840000; fill-opacity:0.0; 
stroke:#840000; stroke-width:200.000000; stroke-opacity:1; 
stroke-linecap:round; stroke-linejoin:round;">
<path style="fill:#840000; fill-opacity:0.0; 
stroke:#840000; stroke-width:200.000000; stroke-opacity:1; 
stroke-linecap:round; stroke-linejoin:round;fill:none"
d="M 51800.000000,45300.000000
51800.000000,43700.000000
" /> 
<path style="fill:#840000; fill-opacity:0.0; 
stroke:#840000; stroke-width:200.000000; stroke-opacity:1; 
stroke-linecap:round; stroke-linejoin:round;fill:none"
d="M 51200.000000,45300.000000
51200.000000,43700.000000
" /> 
</g>
<g style="fill:#840000; fill-opacity:0.0; 
stroke:#840000; stroke-width:60.000000; stroke-opacity:1; 
stroke-linecap:round; stroke-linejoin:round;">
<path d="M51100 44500
L50000 44500
" />
<path d="M51900 44500
L53000 44500
" />
</g>
<g style="fill:#006464; fill-opacity:0.0; 
stroke:#006464; stroke-width:60.000000; stroke-opacity:1; 
stroke-linecap:round; stroke-linejoin:round;">
<text x="51499.960630" y="43250.000000"
textLength="1036.181102" font-size="666.653543" lengthAdjust="spacingAndGlyphs"
text-anchor="middle" opacity="0">C2</text>
<g class="stroked-text"><desc>C2</desc>
<path d="M51416 43178
L51392 43202
L51321 43226
L51273 43226
L51202 43202
L51154 43154
L51130 43107
L51107 43011
L51107 42940
L51130 42845
L51154 42797
L51202 42750
L51273 42726
L51321 42726
L51392 42750
L51416 42773
" />
<path d="M51607 42773
L51630 42750
L51678 42726
L51797 42726
L51845 42750
L51868 42773
L51892 42821
L51892 42869
L51868 42940
L51583 43226
L51892 43226
" />
</g><text x="51500.000000" y="46250.000000"
textLength="1940.944882" font-size="666.653543" lengthAdjust="spacingAndGlyphs"
text-anchor="middle" opacity="0">100n</text>
<g class="stroked-text"><desc>100n</desc>
<path d="M50940 46226
L50654 46226
" />
<path d="M50797 46226
L50797 45726
L50750 45797
L50702 45845
L50654 45869
" />
<path d="M51250 45726
L51297 45726
L51345 45750
L51369 45773
L51392 45821
L51416 45916
L51416 46035
L51392 46130
L51369 46178
L51345 46202
L51297 46226
L51250 46226
L51202 46202
L51178 46178
L51154 46130
L51130 46035
L51130 45916
L51154 45821
L51178 45773
L51202 45750
L51250 45726
" />
<path d="M51726 45726
L51773 45726
L51821 45750
L51845 45773
L51869 45821
L51892 45916
L51892 46035
L51869 46130
L51845 46178
L51821 46202
L51773 46226
L51726 46226
L51678 46202
L51654 46178
L51630 46130
L51607 46035
L51607 45916
L51630 45821
L51654 45773
L51678 45750
L51726 45726
" />
<path d="M52107 45892
L52107 46226
" />
<path d="M52107 45940
L52130 45916
L52178 45892
L52250 45892
L52297 45916
L52321 45964
L52321 46226
" />
</g></g>
</g>
<g style="fill:#006464; fill-opacity:0.0; 
stroke:#006464; stroke-width:60.000000; stroke-opacity:1; 
stroke-linecap:round; stroke-linejoin:round;">
<g >
</g>
<g style="fill:#840000; fill-opacity:0.0; 
stroke:#840000; stroke-width:60.000000; stroke-opacity:1; 
stroke-linecap:round; stroke-linejoin:round;">
</g>
<g style="fill:#FFFFC2; fill-opacity:0.0; 
stroke:#FFFFC2; stroke-width:60.000000; stroke-opacity:1; 
stroke-linecap:round; stroke-linejoin:round;">
</g>
<g style="fill:#FFFFC2; fill-opacity:0.6; 
stroke:#FFFFC2; stroke-width:0.039370; stroke-opacity:1; 
stroke-linecap:round; stroke-linejoin:round;">
<rect x="74000.000000" y="27500.000000" width="1000.000000" height="3000.000000" rx="0.000000" />
</g>
<g style="fill:#840000; fill-opacity:0.6; 
stroke:#840000; stroke-width:0.039370; stroke-opacity:1; 
stroke-linecap:round; stroke-linejoin:round;">
</g>
<g style="fill:#840000; fill-opacity:0.0; 
stroke:#840000; stroke-width:100.000000; stroke-opacity:1; 
stroke-linecap:round; stroke-linejoin:round;">
<rect x="74000.000000" y="27500.000000" width="1000.000000" height="3000.000000" rx="0.000000" />
</g>
<g style="fill:#840000; fill-opacity:0.0; 
stroke:#840000; stroke-width:60.000000; stroke-opacity:1; 
stroke-linecap:round; stroke-linejoin:round;">
<rect x="74000.000000" y="29950.000000" width="500.000000" height="100.000000" rx="0.000000" />
<rect x="74000.000000" y="28950.000000" width="500.000000" height="100.000000" rx="0.000000" />
<rect x="74000.000000" y="27950.000000" width="500.000000" height="100.000000" rx="0.000000" />
</g>
<g style="fill:#840000; fill-opacity:0.0; 
stroke:#840000; stroke-width:100.000000; stroke-opacity:1; 
stroke-linecap:round; stroke-linejoin:round;">
<rect x="74000.000000" y="27500.000000" width="1000.000000" height="3000.000000" rx="0.000000" />
</g>
<g style="fill:#840000; fill-opacity:0.0; 
stroke:#840000; stroke-width:60.000000; stroke-opacity:1; 
stroke-linecap:round; stroke-linejoin:round;">
<path d="M74000 28000
L72500 28000
" />
</g>
<g style="fill:#A90000; fill-opacity:0.0; 
stroke:#A90000; stroke-width:60.000000; stroke-opacity:1; 
stroke-linecap:round; stroke-linejoin:round;">
<text x="73250.000000" y="27900.000000"
textLength="536.181102" font-size="666.653543" lengthAdjust="spacingAndGlyphs"
text-anchor="middle" opacity="0">1</text>
<g class="stroked-text"><desc>1</desc>
<path d="M73392 27876
L73107 27876
" />
<path d="M73250 27876
L73250 27376
L73202 27447
L73154 27495
L73107 27519
" />
</g></g>
<g style="fill:#840000; fill-opacity:0.0; 
stroke:#840000; stroke-width:60.000000; stroke-opacity:1; 
stroke-linecap:round; stroke-linejoin:round;">
<path d="M74000 29000
L72500 29000
" />
</g>
<g style="fill:#A90000; fill-opacity:0.0; 
stroke:#A90000; stroke-width:60.000000; stroke-opacity:1; 
stroke-linecap:round; stroke-linejoin:round;">
<text x="73250.000000" y="28900.000000"
textLength="536.181102" font-size="666.653543" lengthAdjust="spacingAndGlyphs"
text-anchor="middle" opacity="0">2</text>
<g class="stroked-text"><desc>2</desc>
<path d="M73107 28423
L73130 28400
L73178 28376
L73297 28376
L73345 28400
L73369 28423
L73392 28471
L73392 28519
L73369 28590
L73083 28876
L73392 28876
" />
</g></g>
<g style="fill:#840000; fill-opacity:0.0; 
stroke:#840000; stroke-width:60.000000; stroke-opacity:1; 
stroke-linecap:round; stroke-linejoin:round;">
<path d="M74000 30000
L72500 30000
" />
</g>
<g style="fill:#A90000; fill-opacity:0.0; 
stroke:#A90000; stroke-width:60.000000; stroke-opacity:1; 
stroke-linecap:round; stroke-linejoin:round;">
<text x="73250.000000" y="29900.000000"
textLength="536.181102" font-size="666.653543" lengthAdjust="spacingAndGlyphs"
text-anchor="middle" opacity="0">3</text>
<g class="stroked-text"><desc>3</desc>
<path d="M73083 29376
L73392 29376
L73226 29566
L73297 29566
L73345 29590
L73369 29614
L73392 29661
L73392 29780
L73369 29828
L73345 29852
L73297 29876
L73154 29876
L73107 29852
L73083 29828
" />
</g></g>
<g style="fill:#006464; fill-opacity:0.0; 
stroke:#006464; stroke-width:60.000000; stroke-opacity:1; 
stroke-linecap:round; stroke-linejoin:round;">
<text x="75959.803150" y="28749.921260"
textLength="917.125984" font-size="666.653543" lengthAdjust="spacingAndGlyphs"
text-anchor="middle" opacity="0">J3</text>
<g class="stroked-text"><desc>J3</desc>
<path d="M75793 28226
L75793 28583
L75769 28654
L75721 28702
L75650 28726
L75602 28726
" />
<path d="M75983 28226
L76293 28226
L76126 28416
L76197 28416
L76245 28440
L76269 28464
L76293 28511
L76293 28630
L76269 28678
L76245 28702
L76197 28726
L76055 28726
L76007 28702
L75983 28678
" />
</g><text x="77447.913386" y="29749.921260"
textLength="3893.346457" font-size="666.653543" lengthAdjust="spacingAndGlyphs"
text-anchor="middle" opacity="0">Bias Conn</text>
<g class="stroked-text"><desc>Bias Conn</desc>
<path d="M75816 29464
L75888 29487
L75912 29511
L75935 29559
L75935 29630
L75912 29678
L75888 29702
L75840 29726
L75650 29726
L75650 29226
L75816 29226
L75864 29249
L75888 29273
L75912 29321
L75912 29368
L75888 29416
L75864 29440
L75816 29464
L75650 29464
" />
<path d="M76150 29726
L76150 29392
" />
<path d="M76150 29226
L76126 29249
L76150 29273
L76174 29249
L76150 29226
L76150 29273
" />
<path d="M76602 29726
L76602 29464
L76578 29416
L76531 29392
L76435 29392
L76388 29416
" />
<path d="M76602 29702
L76555 29726
L76435 29726
L76388 29702
L76364 29654
L76364 29607
L76388 29559
L76435 29535
L76555 29535
L76602 29511
" />
<path d="M76816 29702
L76864 29726
L76959 29726
L77007 29702
L77031 29654
L77031 29630
L77007 29583
L76959 29559
L76888 29559
L76840 29535
L76816 29487
L76816 29464
L76840 29416
L76888 29392
L76959 29392
L77007 29416
" />
<path d="M77912 29678
L77888 29702
L77816 29726
L77769 29726
L77697 29702
L77650 29654
L77626 29607
L77602 29511
L77602 29440
L77626 29345
L77650 29297
L77697 29249
L77769 29226
L77816 29226
L77888 29249
L77912 29273
" />
<path d="M78197 29726
L78150 29702
L78126 29678
L78102 29630
L78102 29487
L78126 29440
L78150 29416
L78197 29392
L78269 29392
L78316 29416
L78340 29440
L78364 29487
L78364 29630
L78340 29678
L78316 29702
L78269 29726
L78197 29726
" />
<path d="M78578 29392
L78578 29726
" />
<path d="M78578 29440
L78602 29416
L78650 29392
L78721 29392
L78769 29416
L78793 29464
L78793 29726
" />
<path d="M79031 29392
L79031 29726
" />
<path d="M79031 29440
L79055 29416
L79102 29392
L79174 29392
L79221 29416
L79245 29464
L79245 29726
" />
</g></g>
</g>
<g style="fill:#006464; fill-opacity:0.0; 
stroke:#006464; stroke-width:60.000000; stroke-opacity:1; 
stroke-linecap:round; stroke-linejoin:round;">
<g >
</g>
<g style="fill:#840000; fill-opacity:0.0; 
stroke:#840000; stroke-width:60.000000; stroke-opacity:1; 
stroke-linecap:round; stroke-linejoin:round;">
<path style="fill:#840000; fill-opacity:0.0; 
stroke:#840000; stroke-width:60.000000; stroke-opacity:1; 
stroke-linecap:round; stroke-linejoin:round;fill:none"
d="M 70200.000000,26500.000000
70500.000000,26000.000000
" /> 
<path style="fill:#840000; fill-opacity:0.0; 
stroke:#840000; stroke-width:60.000000; stroke-opacity:1; 
stroke-linecap:round; stroke-linejoin:round;fill:none"
d="M 70500.000000,27000.000000
70500.000000,26000.000000
" /> 
<path style="fill:#840000; fill-opacity:0.0; 
stroke:#840000; stroke-width:60.000000; stroke-opacity:1; 
stroke-linecap:round; stroke-linejoin:round;fill:none"
d="M 70500.000000,26000.000000
70800.000000,26500.000000
" /> 
</g>
<g style="fill:#006464; fill-opacity:0.0; 
stroke:#006464; stroke-width:60.000000; stroke-opacity:1; 
stroke-linecap:round; stroke-linejoin:round;">
<text x="70500.000000" y="25249.960630"
textLength="1488.582677" font-size="666.653543" lengthAdjust="spacingAndGlyphs"
text-anchor="middle" opacity="0">VCC</text>
<g class="stroked-text"><desc>VCC</desc>
<path d="M69833 24726
L70000 25226
L70166 24726
" />
<path d="M70619 25178
L70595 25202
L70523 25226
L70476 25226
L70404 25202
L70357 25154
L70333 25107
L70309 25011
L70309 24940
L70333 24845
L70357 24797
L70404 24749
L70476 24726
L70523 24726
L70595 24749
L70619 24773
" />
<path d="M71119 25178
L71095 25202
L71023 25226
L70976 25226
L70904 25202
L70857 25154
L70833 25107
L70809 25011
L70809 24940
L70833 24845
L70857 24797
L70904 24749
L70976 24726
L71023 24726
L71095 24749
L71119 24773
" />
</g></g>
</g>
<g style="fill:#006464; fill-opacity:0.0; 
stroke:#006464; stroke-width:60.000000; stroke-opacity:1; 
stroke-linecap:round; stroke-linejoin:round;">
<g >
</g>
<g style="fill:#840000; fill-opacity:0.0; 
stroke:#840000; stroke-width:60.000000; stroke-opacity:1; 
stroke-linecap:round; stroke-linejoin:round;">
<path style="fill:#840000; fill-opacity:0.0; 
stroke:#840000; stroke-width:60.000000; stroke-opacity:1; 
stroke-linecap:round; stroke-linejoin:round;fill:none"
d="M 46500.000000,39000.000000
46500.000000,39500.000000
47000.000000,39500.000000
46500.000000,40000.000000
46000.000000,39500.000000
46500.000000,39500.000000
" /> 
</g>
<g style="fill:#006464; fill-opacity:0.0; 
stroke:#006464; stroke-width:60.000000; stroke-opacity:1; 
stroke-linecap:round; stroke-linejoin:round;">
<text x="46500.000000" y="41249.960630"
textLength="1583.818898" font-size="666.653543" lengthAdjust="spacingAndGlyphs"
text-anchor="middle" opacity="0">GND</text>
<g class="stroked-text"><desc>GND</desc>
<path d="M46119 40749
L46071 40726
L46000 40726
L45928 40749
L45880 40797
L45857 40845
L45833 40940
L45833 41011
L45857 41107
L45880 41154
L45928 41202
L46000 41226
L46047 41226
L46119 41202
L46142 41178
L46142 41011
L46047 41011
" />
<path d="M46357 41226
L46357 40726
L46642 41226
L46642 40726
" />
<path d="M46880 41226
L46880 40726
L47000 40726
L47071 40749
L47119 40797
L47142 40845
L47166 40940
L47166 41011
L47142 41107
L47119 41154
L47071 41202
L47000 41226
L46880 41226
" />
</g></g>
</g>
<g style="fill:#006464; fill-opacity:0.0; 
stroke:#006464; stroke-width:60.000000; stroke-opacity:1; 
stroke-linecap:round; stroke-linejoin:round;">
<g >
</g>
<g style="fill:#840000; fill-opacity:0.0; 
stroke:#840000; stroke-width:60.000000; stroke-opacity:1; 
stroke-linecap:round; stroke-linejoin:round;">
<path style="fill:#840000; fill-opacity:0.0; 
stroke:#840000; stroke-width:60.000000; stroke-opacity:1; 
stroke-linecap:round; stroke-linejoin:round;fill:none"
d="M 54500.000000,41000.000000
54500.000000,41500.000000
55000.000000,41500.000000
54500.000000,42000.000000
54000.000000,41500.000000
54500.000000,41500.000000
" /> 
</g>
<g style="fill:#006464; fill-opacity:0.0; 
stroke:#006464; stroke-width:60.000000; stroke-opacity:1; 
stroke-linecap:round; stroke-linejoin:round;">
<text x="54500.000000" y="43249.960630"
textLength="1583.818898" font-size="666.653543" lengthAdjust="spacingAndGlyphs"
text-anchor="middle" opacity="0">GND</text>
<g class="stroked-text"><desc>GND</desc>
<path d="M54119 42749
L54071 42726
L54000 42726
L53928 42749
L53880 42797
L53857 42845
L53833 42940
L53833 43011
L53857 43107
L53880 43154
L53928 43202
L54000 43226
L54047 43226
L54119 43202
L54142 43178
L54142 43011
L54047 43011
" />
<path d="M54357 43226
L54357 42726
L54642 43226
L54642 42726
" />
<path d="M54880 43226
L54880 42726
L55000 42726
L55071 42749
L55119 42797
L55142 42845
L55166 42940
L55166 43011
L55142 43107
L55119 43154
L55071 43202
L55000 43226
L54880 43226
" />
</g></g>
</g>
<g style="fill:#006464; fill-opacity:0.0; 
stroke:#006464; stroke-width:60.000000; stroke-opacity:1; 
stroke-linecap:round; stroke-linejoin:round;">
<g >
</g>
<g style="fill:#840000; fill-opacity:0.0; 
stroke:#840000; stroke-width:60.000000; stroke-opacity:1; 
stroke-linecap:round; stroke-linejoin:round;">
</g>
<g style="fill:#840000; fill-opacity:0.0; 
stroke:#840000; stroke-width:100.000000; stroke-opacity:1; 
stroke-linecap:round; stroke-linejoin:round;">
<rect x="60500.000000" y="31600.000000" width="2000.000000" height="800.000000" rx="0.000000" />
</g>
<g style="fill:#840000; fill-opacity:0.0; 
stroke:#840000; stroke-width:60.000000; stroke-opacity:1; 
stroke-linecap:round; stroke-linejoin:round;">
<path d="M60500 32000
L60000 32000
" />
<path d="M62500 32000
L63000 32000
" />
</g>
<g style="fill:#006464; fill-opacity:0.0; 
stroke:#006464; stroke-width:60.000000; stroke-opacity:1; 
stroke-linecap:round; stroke-linejoin:round;">
<text x="61499.960630" y="31250.000000"
textLength="1036.181102" font-size="666.653543" lengthAdjust="spacingAndGlyphs"
text-anchor="middle" opacity="0">R2</text>
<g class="stroked-text"><desc>R2</desc>
<path d="M61416 31226
L61249 30988
" />
<path d="M61130 31226
L61130 30726
L61321 30726
L61368 30750
L61392 30773
L61416 30821
L61416 30892
L61392 30940
L61368 30964
L61321 30988
L61130 30988
" />
<path d="M61607 30773
L61630 30750
L61678 30726
L61797 30726
L61845 30750
L61868 30773
L61892 30821
L61892 30869
L61868 30940
L61583 31226
L61892 31226
" />
</g><text x="61499.960630" y="33250.000000"
textLength="1417.125984" font-size="666.653543" lengthAdjust="spacingAndGlyphs"
text-anchor="middle" opacity="0">10k</text>
<g class="stroked-text"><desc>10k</desc>
<path d="M61202 33226
L60916 33226
" />
<path d="M61059 33226
L61059 32726
L61011 32797
L60964 32845
L60916 32869
" />
<path d="M61511 32726
L61559 32726
L61607 32750
L61630 32773
L61654 32821
L61678 32916
L61678 33035
L61654 33130
L61630 33178
L61607 33202
L61559 33226
L61511 33226
L61464 33202
L61440 33178
L61416 33130
L61392 33035
L61392 32916
L61416 32821
L61440 32773
L61464 32750
L61511 32726
" />
<path d="M61892 33226
L61892 32726
" />
<path d="M61940 33035
L62083 33226
" />
<path d="M62083 32892
L61892 33083
" />
</g></g>
</g>
<g style="fill:#006464; fill-opacity:0.0; 
stroke:#006464; stroke-width:60.000000; stroke-opacity:1; 
stroke-linecap:round; stroke-linejoin:round;">
<g >
</g>
<g style="fill:#840000; fill-opacity:0.0; 
stroke:#840000; stroke-width:60.000000; stroke-opacity:1; 
stroke-linecap:round; stroke-linejoin:round;">
<path style="fill:#840000; fill-opacity:0.0; 
stroke:#840000; stroke-width:60.000000; stroke-opacity:1; 
stroke-linecap:round; stroke-linejoin:round;fill:none"
d="M 58200.000000,29000.000000
58500.000000,28500.000000
" /> 
<path style="fill:#840000; fill-opacity:0.0; 
stroke:#840000; stroke-width:60.000000; stroke-opacity:1; 
stroke-linecap:round; stroke-linejoin:round;fill:none"
d="M 58500.000000,29500.000000
58500.000000,28500.000000
" /> 
<path style="fill:#840000; fill-opacity:0.0; 
stroke:#840000; stroke-width:60.000000; stroke-opacity:1; 
stroke-linecap:round; stroke-linejoin:round;fill:none"
d="M 58500.000000,28500.000000
58800.000000,29000.000000
" /> 
</g>
<g style="fill:#006464; fill-opacity:0.0; 
stroke:#006464; stroke-width:60.000000; stroke-opacity:1; 
stroke-linecap:round; stroke-linejoin:round;">
<text x="58500.000000" y="27749.960630"
textLength="1488.582677" font-size="666.653543" lengthAdjust="spacingAndGlyphs"
text-anchor="middle" opacity="0">VCC</text>
<g class="stroked-text"><desc>VCC</desc>
<path d="M57833 27226
L58000 27726
L58166 27226
" />
<path d="M58619 27678
L58595 27702
L58523 27726
L58476 27726
L58404 27702
L58357 27654
L58333 27607
L58309 27511
L58309 27440
L58333 27345
L58357 27297
L58404 27249
L58476 27226
L58523 27226
L58595 27249
L58619 27273
" />
<path d="M59119 27678
L59095 27702
L59023 27726
L58976 27726
L58904 27702
L58857 27654
L58833 27607
L58809 27511
L58809 27440
L58833 27345
L58857 27297
L58904 27249
L58976 27226
L59023 27226
L59095 27249
L59119 27273
" />
</g></g>
</g>
<g style="fill:#006464; fill-opacity:0.0; 
stroke:#006464; stroke-width:60.000000; stroke-opacity:1; 
stroke-linecap:round; stroke-linejoin:round;">
</g>
<g style="fill:#009600; fill-opacity:0.0; 
stroke:#009600; stroke-width:60.000000; stroke-opacity:1; 
stroke-linecap:round; stroke-linejoin:round;">
<path d="M45500 36500
L48000 36500
" />
<path d="M45500 44500
L50000 44500
" />
<path d="M60000 32000
L54500 32000
" />
<path d="M54500 32000
L54500 36500
" />
<path d="M45500 30000
L50000 30000
" />
<path d="M51000 36500
L54500 36500
" />
<path d="M53000 44500
L58500 44500
" />
<path d="M58500 44500
L58500 45000
" />
<path d="M58500 40500
L58500 44500
" />
<path d="M54500 38500
L56500 38500
" />
<path d="M54500 41000
L54500 38500
" />
<path d="M66000 38500
L67000 38500
" />
<path d="M58500 30000
L58500 34500
" />
<path d="M58500 29500
L58500 30000
" />
<path d="M69500 29000
L72500 29000
" />
<path d="M70500 27000
L70500 28000
" />
<path d="M72500 30000
L70500 30000
" />
<path d="M72500 28000
L70500 28000
" />
<path d="M64500 37500
L62500 37500
" />
<path d="M63000 32000
L64500 32000
" />
<path d="M64500 32000
L64500 37500
" />
<path d="M45500 37500
L46500 37500
" />
<path d="M64500 37500
L67000 37500
" />
<path d="M66000 41000
L66000 38500
" />
<path d="M70500 30000
L70500 31500
" />
<path d="M54500 36500
L56500 36500
" />
<path d="M53000 30000
L58500 30000
" />
<path d="M46500 37500
L46500 39000
" />
</g>
<g style="fill:#000084; fill-opacity:0.0; 
stroke:#000084; stroke-width:60.000000; stroke-opacity:1; 
stroke-linecap:round; stroke-linejoin:round;">
<path d="M59260 34260
L59740 34740
" />
<path d="M59740 34260
L59260 34740
" />
<path d="M60260 34260
L60740 34740
" />
<path d="M60740 34260
L60260 34740
" />
</g>
<g style="fill:#009600; fill-opacity:0.0; 
stroke:#009600; stroke-width:60.000000; stroke-opacity:1; 
stroke-linecap:round; stroke-linejoin:round;">
</g>
<g style="fill:#009600; fill-opacity:1.0; 
stroke:#009600; stroke-width:60.000000; stroke-opacity:1; 
stroke-linecap:round; stroke-linejoin:round;">
<circle cx="58500.000000" cy="30000.000000" r="180.000000" /> 
<circle cx="64500.000000" cy="37500.000000" r="180.000000" /> 
<circle cx="54500.000000" cy="36500.000000" r="180.000000" /> 
<circle cx="58500.000000" cy="44500.000000" r="180.000000" /> 
</g> 
</svg>
